<svg width="697" height="273" viewBox="0 0 697 273" fill="none" xmlns="http://www.w3.org/2000/svg">
<g clip-path="url(#clip0_91_2)">
<g style="mix-blend-mode:multiply">
<path d="M145.86 203.16C142.07 216.95 125.46 222.1 104.59 215.82L38.38 195.89C33.86 194.52 29.56 193.8 25.58 193.68C25.51 192.83 25.48 191.96 25.48 191.02V104.31H11.79V192.88C11.79 194.2 11.67 195.35 11.49 196.38C7.06 198.55 3.61 201.94 1.53 206.5L0 210.14C0.42 210.59 0.87 211.01 1.36 211.39C4.54 204.14 12.68 201.67 24.51 205.23L101.15 228.31C123.22 234.95 141.57 225.82 147.08 205.79L145.86 203.16Z" fill="url(#paint0_linear_91_2)"/>
<path d="M283.33 155.22H283.23L250.99 104.32H232.09L195.17 156.86C190.61 162.7 186.18 165.54 181.19 165.54V169.3H205.55V165.54H203.86C198.24 165.54 197.3 161.42 201.43 155.23H201.34L235.23 104.92L268.01 156.9C271.38 162.99 270.43 165.54 265.89 165.54V169.3H293.07V165.54C290.76 165.54 287.5 161.82 283.33 155.23V155.22Z" fill="url(#paint1_linear_91_2)"/>
<path d="M415.02 162.16C411.84 163.1 409.79 159.92 409.79 154.3V104.32H396.3V135.55C388.8 151.67 371.74 162.35 353.75 162.35C340.81 162.35 332.2 148.66 332.2 128.06V104.32H318.51V128.06C318.51 153.92 330.51 171.17 348.3 171.17C368.73 171.17 388.04 159.36 396.3 141.55V169.29H403.05L407.05 168.18C410.08 167.35 413.29 166.49 415.97 165.73V161.97L415.03 162.16H415.02Z" fill="url(#paint2_linear_91_2)"/>
<path d="M162.41 162.16C159.23 163.1 157.16 159.92 157.16 154.3V104.32H143.67V135.55C136.17 151.67 119.11 162.35 101.13 162.35C88.1899 162.35 79.5699 148.66 79.5699 128.06V104.32H65.8799V128.06C65.8799 153.92 77.8799 171.17 95.6899 171.17C116.12 171.17 135.43 159.36 143.67 141.55V169.29H150.42L154.44 168.18C157.45 167.35 160.67 166.49 163.36 165.73V161.97L162.42 162.16H162.41Z" fill="url(#paint3_linear_91_2)"/>
<path d="M525.38 154.28C512.93 131.39 503.26 113.57 498.25 104.32H483.66C487.45 112.81 496.88 131.22 509.45 154.28C517.31 168.71 518.63 169.29 544.87 169.29V166.66C532.68 166.66 531.74 166.09 525.38 154.28ZM459.21 156.16V104.32H445.54V156.16C445.54 162.49 443.45 165.53 439.35 165.53V169.29H465.4V165.53C461.3 165.53 459.21 162.49 459.21 156.16Z" fill="url(#paint4_linear_91_2)"/>
<path d="M613.19 165.53C608.13 165.53 604.76 160.3 604.76 152.42V106.68L606.05 104.31H604.1L604.07 104.36L604.04 104.31H589.05L591.28 108V152.42C591.28 160.3 587.91 165.53 582.85 165.53H581.34V169.29H614.71V165.53H613.21H613.19Z" fill="url(#paint5_linear_91_2)"/>
</g>
<path d="M660.59 191.87C660.59 192.34 576.56 192.72 472.9 192.72C369.24 192.72 285.21 192.34 285.21 191.87C285.21 191.4 369.24 191.02 472.9 191.02C576.56 191.02 660.59 191.4 660.59 191.87Z" fill="url(#paint6_linear_91_2)"/>
<path style="mix-blend-mode:screen" d="M496.68 198.04C406.14 198.25 332.74 195.37 332.73 191.61C332.73 187.85 406.11 184.62 496.64 184.41C587.18 184.2 660.58 187.08 660.59 190.84C660.59 194.6 587.21 197.83 496.68 198.04Z" fill="url(#paint7_radial_91_2)"/>
<path style="mix-blend-mode:screen" d="M495.05 204.31C457.56 199.1 427.88 189.69 428.77 183.3C429.66 176.9 460.77 175.94 498.27 181.14C535.76 186.35 565.44 195.76 564.55 202.15C563.66 208.55 532.55 209.51 495.05 204.31Z" fill="url(#paint8_radial_91_2)"/>
<path d="M660.59 13.16C660.59 13.99 512.71 14.66 330.29 14.66C147.87 14.66 0 13.98 0 13.16C0 12.34 147.88 11.66 330.3 11.66C512.72 11.66 660.6 12.33 660.6 13.16H660.59Z" fill="url(#paint9_linear_91_2)"/>
<path style="mix-blend-mode:screen" d="M330.33 24.01C171.01 24.38 41.8301 19.32 41.8201 12.69C41.8001 6.07 170.94 0.39 330.27 0.0199999C489.59 -0.35 618.77 4.71 618.78 11.34C618.8 17.96 489.65 23.64 330.33 24.01Z" fill="url(#paint10_radial_91_2)"/>
<path d="M256.08 252.05V251.87H266.04V254.05H265.88C265.66 253.24 265.48 252.76 265.34 252.62C265.19 252.48 264.83 252.41 264.26 252.41H259.03V259.52H263.88C264.36 259.52 264.67 259.48 264.79 259.39C264.91 259.3 264.99 259.17 264.99 259H265.15V260.5H264.99C264.95 260.29 264.87 260.15 264.74 260.08C264.61 260.01 264.36 259.97 264 259.97H259.02V264.87C259.02 265.61 259.09 266.14 259.22 266.47C259.36 266.8 259.57 267 259.87 267.08C260.17 267.16 260.62 267.2 261.22 267.2H264.01C264.9 267.2 265.47 267.17 265.71 267.11C265.95 267.05 266.17 266.93 266.34 266.75C266.51 266.57 266.64 266.17 266.74 265.56H266.9V267.73H256.07V267.57C256.44 267.55 256.71 267.48 256.9 267.36C257.09 267.24 257.18 266.93 257.18 266.44V253.65C257.18 253.07 257.13 252.66 257.03 252.43C256.93 252.19 256.61 252.08 256.06 252.08L256.08 252.05Z" fill="black"/>
<path d="M286.15 251.86V252.02C285.71 251.97 285.31 252.19 284.97 252.68C284.97 252.68 284.95 252.69 284.94 252.71C284.94 252.73 284.92 252.75 284.91 252.76L284.82 252.88C284.82 252.88 284.77 252.95 284.77 252.97L284.66 253.08L280.63 258.75L285.46 265.73C285.99 266.53 286.4 267.04 286.68 267.26C286.96 267.48 287.23 267.58 287.49 267.56V267.72H283.55V267.56C283.89 267.58 284.05 267.46 284.05 267.21C284.05 267 283.94 266.74 283.72 266.42L279.51 260.35L275.27 266.3C275.27 266.3 275.19 266.43 275.02 266.66C274.83 266.89 274.73 267.09 274.73 267.27C274.73 267.49 274.91 267.58 275.27 267.56V267.72H272.9V267.56C273.24 267.56 273.55 267.43 273.8 267.16L273.98 266.97L279.12 259.79L274.38 252.96C274.38 252.86 274.24 252.67 273.97 252.4C273.7 252.13 273.39 252.01 273.05 252.03V251.87H277.04V252.03C276.61 252.03 276.39 252.15 276.39 252.38C276.39 252.55 276.52 252.83 276.79 253.21L280.25 258.2L283.99 252.97C283.99 252.97 284.05 252.86 284.16 252.67C284.26 252.47 284.32 252.35 284.32 252.3C284.32 252.18 284.28 252.1 284.21 252.07C284.13 252.04 283.99 252.02 283.77 252.02V251.86H286.17H286.15Z" fill="black"/>
<path d="M306.76 252.66L307.35 254.34H307.19C305.66 252.81 303.85 252.05 301.77 252.05C299.69 252.05 297.87 252.69 296.54 253.98C295.21 255.26 294.55 256.82 294.55 258.64C294.55 259.77 294.85 261.06 295.44 262.52C296.03 263.98 296.97 265.19 298.24 266.13C299.52 267.07 301.06 267.54 302.88 267.54C304.07 267.54 305.24 267.35 306.38 266.96C307.52 266.58 308.38 266.06 308.94 265.42L309.08 265.46L307.97 267.16C306.18 267.55 305.01 267.78 304.48 267.85C303.95 267.92 303.23 267.96 302.33 267.96C299.01 267.96 296.63 267.19 295.2 265.65C293.77 264.11 293.05 262.27 293.05 260.12C293.05 258.67 293.42 257.28 294.15 255.94C294.88 254.6 295.95 253.55 297.33 252.78C298.71 252.01 300.3 251.62 302.08 251.62C302.97 251.62 303.74 251.7 304.39 251.86C305.04 252.02 305.58 252.19 306.01 252.36L306.72 252.63L306.76 252.65V252.66Z" fill="black"/>
<path d="M315.02 267.71V267.55C315.52 267.55 315.84 267.46 315.98 267.27C316.13 267.08 316.2 266.77 316.2 266.31V253.34C316.2 252.88 316.14 252.55 316.03 252.34C315.92 252.13 315.57 252.03 315 252.01V251.85H319.25V252.01C318.86 252.01 318.58 252.06 318.42 252.16C318.26 252.26 318.16 252.38 318.11 252.51C318.06 252.65 318.04 252.95 318.04 253.44V264.56C318.04 265.51 318.27 266.19 318.73 266.58C319.19 266.97 319.97 267.17 321.08 267.17H323.01C323.94 267.17 324.62 266.94 325.06 266.48C325.49 266.02 325.74 265.16 325.79 263.89H325.95V267.7H315.03L315.02 267.71Z" fill="black"/>
<path d="M346.99 267.71H343.99V265.27C342.46 266.97 340.64 267.82 338.53 267.82C336.96 267.82 335.72 267.38 334.79 266.5C333.87 265.62 333.41 264.4 333.41 262.84V253.35C333.41 252.78 333.34 252.41 333.21 252.26C333.07 252.11 332.75 252.03 332.25 252.03V251.87H336.46V252.03C336.02 252.03 335.7 252.1 335.52 252.24C335.34 252.38 335.25 252.71 335.25 253.24V261.95C335.25 263.77 335.68 265.07 336.53 265.85C337.38 266.63 338.35 267.02 339.44 267.02C341.15 267.02 342.67 266.25 344 264.71V253.98C344 253.04 343.92 252.48 343.75 252.31C343.58 252.14 343.33 252.05 342.97 252.05H342.82V251.89H346.99V252.05C346.47 252.08 346.15 252.17 346.02 252.31C345.89 252.45 345.82 252.73 345.82 253.13V266.03C345.82 266.54 345.85 266.87 345.9 267.03C345.95 267.19 346.05 267.32 346.21 267.42C346.36 267.52 346.63 267.58 347 267.58V267.74L346.99 267.71Z" fill="black"/>
<path d="M361.86 252.07L362.61 254.05L362.48 254.07C362.48 254.07 362.28 253.85 361.88 253.43C361.48 253.01 361.03 252.69 360.51 252.47C359.99 252.25 359.42 252.13 358.77 252.13C357.69 252.13 356.83 252.44 356.19 253.06C355.55 253.68 355.24 254.43 355.24 255.3C355.24 255.88 355.39 256.39 355.69 256.82C355.99 257.25 356.61 257.66 357.56 258.03C359.19 258.58 360.3 258.99 360.9 259.27C361.5 259.55 362.08 260.01 362.63 260.67C363.18 261.33 363.46 262.17 363.46 263.21C363.46 263.64 363.41 264.05 363.31 264.44C363.21 264.83 363.05 265.21 362.83 265.57C362.61 265.93 362.34 266.26 362.03 266.56C361.72 266.86 361.4 267.08 361.08 267.24C360.76 267.39 360.25 267.51 359.55 267.59C358.85 267.67 358.4 267.71 358.17 267.71H353.94V263.1H354.1C354.11 264.63 354.47 265.69 355.18 266.3C355.89 266.91 356.98 267.2 358.46 267.2C359.81 267.2 360.83 266.88 361.53 266.24C362.23 265.6 362.58 264.84 362.58 263.94C362.58 263.39 362.46 262.93 362.21 262.55C361.96 262.17 361.63 261.83 361.19 261.54C360.75 261.25 359.92 260.89 358.71 260.48C357.5 260.06 356.65 259.68 356.15 259.36C355.65 259.04 355.25 258.56 354.92 257.92C354.59 257.28 354.42 256.62 354.42 255.96C354.42 254.74 354.84 253.71 355.68 252.88C356.52 252.05 357.63 251.63 359 251.63C359.53 251.63 360.1 251.69 360.72 251.81C361.34 251.93 361.68 252.01 361.75 252.05C361.78 252.06 361.81 252.07 361.84 252.07H361.86Z" fill="black"/>
<path d="M374.44 251.86V252.02C374.23 252 374 252.03 373.75 252.12C373.5 252.21 373.34 252.33 373.3 252.5C373.25 252.67 373.23 253.06 373.23 253.67V265.83C373.23 266.49 373.26 266.89 373.31 267.04C373.36 267.19 373.47 267.31 373.62 267.41C373.77 267.51 374.05 267.55 374.44 267.55V267.71H370.21V267.55C370.74 267.55 371.07 267.45 371.2 267.24C371.33 267.03 371.39 266.57 371.39 265.85V253.81C371.39 253.06 371.32 252.57 371.17 252.33C371.03 252.1 370.7 252 370.2 252.02V251.86H374.43H374.44Z" fill="black"/>
<path d="M388.44 267.96H388.24L382.6 254.01C382.2 253.03 381.87 252.45 381.61 252.28C381.35 252.11 381.09 252.03 380.81 252.03V251.87H384.47V252.03C384.15 252.01 383.99 252.13 383.99 252.41C383.99 252.52 384.01 252.63 384.05 252.75L388.97 264.95L393.85 252.76C393.91 252.6 393.95 252.46 393.95 252.37C393.95 252.13 393.76 252.02 393.39 252.04V251.88H395.77V252.04C395.61 252.04 395.43 252.06 395.25 252.11C395.07 252.16 394.88 252.34 394.69 252.66C394.5 252.98 394.4 253.16 394.39 253.18L388.46 267.98L388.44 267.96Z" fill="black"/>
<path d="M402.23 252.05V251.87H412.19V254.05H412.03C411.81 253.24 411.63 252.76 411.49 252.62C411.34 252.48 410.98 252.41 410.41 252.41H405.18V259.52H410.03C410.51 259.52 410.82 259.48 410.94 259.39C411.06 259.3 411.14 259.17 411.14 259H411.3V260.5H411.14C411.1 260.29 411.02 260.15 410.89 260.08C410.76 260.01 410.51 259.97 410.15 259.97H405.17V264.87C405.17 265.61 405.24 266.14 405.37 266.47C405.51 266.8 405.72 267 406.02 267.08C406.32 267.16 406.77 267.2 407.37 267.2H410.16C411.05 267.2 411.62 267.17 411.86 267.11C412.1 267.05 412.32 266.93 412.49 266.75C412.66 266.57 412.79 266.17 412.89 265.56H413.05V267.73H402.22V267.57C402.59 267.55 402.86 267.48 403.05 267.36C403.24 267.24 403.33 266.93 403.33 266.44V253.65C403.33 253.07 403.28 252.66 403.18 252.43C403.08 252.19 402.76 252.08 402.21 252.08L402.23 252.05Z" fill="black"/>
<path d="M431.01 267.71V267.55C431.51 267.55 431.83 267.46 431.97 267.27C432.12 267.08 432.19 266.77 432.19 266.31V253.34C432.19 252.88 432.13 252.55 432.02 252.34C431.91 252.13 431.56 252.03 430.99 252.01V251.85H435.24V252.01C434.85 252.01 434.57 252.06 434.41 252.16C434.25 252.26 434.15 252.38 434.1 252.51C434.05 252.65 434.03 252.95 434.03 253.44V264.56C434.03 265.51 434.26 266.19 434.72 266.58C435.18 266.97 435.96 267.17 437.07 267.17H439C439.93 267.17 440.61 266.94 441.05 266.48C441.48 266.02 441.73 265.16 441.78 263.89H441.94V267.7H431.02L431.01 267.71Z" fill="black"/>
<path d="M453.17 251.86V252.02C452.96 252 452.73 252.03 452.48 252.12C452.23 252.21 452.07 252.33 452.03 252.5C451.98 252.67 451.96 253.06 451.96 253.67V265.83C451.96 266.49 451.99 266.89 452.04 267.04C452.09 267.19 452.2 267.31 452.35 267.41C452.5 267.51 452.78 267.55 453.17 267.55V267.71H448.94V267.55C449.47 267.55 449.8 267.45 449.93 267.24C450.06 267.03 450.12 266.57 450.12 265.85V253.81C450.12 253.06 450.05 252.57 449.9 252.33C449.76 252.1 449.43 252 448.93 252.02V251.86H453.16H453.17Z" fill="black"/>
<path d="M467.16 267.96H466.96L461.32 254.01C460.92 253.03 460.59 252.45 460.33 252.28C460.07 252.11 459.81 252.03 459.53 252.03V251.87H463.19V252.03C462.87 252.01 462.71 252.13 462.71 252.41C462.71 252.52 462.73 252.63 462.77 252.75L467.69 264.95L472.57 252.76C472.63 252.6 472.67 252.46 472.67 252.37C472.67 252.13 472.48 252.02 472.11 252.04V251.88H474.49V252.04C474.33 252.04 474.15 252.06 473.97 252.11C473.79 252.16 473.6 252.34 473.41 252.66C473.22 252.98 473.12 253.16 473.11 253.18L467.18 267.98L467.16 267.96Z" fill="black"/>
<path d="M485.07 251.86V252.02C484.86 252 484.63 252.03 484.38 252.12C484.13 252.21 483.97 252.33 483.93 252.5C483.88 252.67 483.86 253.06 483.86 253.67V265.83C483.86 266.49 483.89 266.89 483.94 267.04C483.99 267.19 484.1 267.31 484.25 267.41C484.4 267.51 484.68 267.55 485.07 267.55V267.71H480.84V267.55C481.37 267.55 481.7 267.45 481.83 267.24C481.96 267.03 482.02 266.57 482.02 265.85V253.81C482.02 253.06 481.95 252.57 481.8 252.33C481.66 252.1 481.33 252 480.83 252.02V251.86H485.06H485.07Z" fill="black"/>
<path d="M505.18 251.86H508.25V252.02C507.78 252.03 507.46 252.13 507.28 252.32C507.1 252.51 507.01 252.89 507.01 253.48V267.91L494.37 254.45V266.17C494.37 266.54 494.4 266.82 494.46 267C494.52 267.18 494.6 267.3 494.71 267.37C494.82 267.43 495.09 267.5 495.52 267.56V267.72H492.47V267.56C493.02 267.56 493.35 267.46 493.49 267.27C493.62 267.08 493.69 266.61 493.69 265.88V255.16C493.69 254.22 493.56 253.45 493.3 252.86C493.04 252.27 492.43 251.99 491.49 252.03V251.87H494.47L506.35 264.52V253.33C506.35 252.73 506.24 252.36 506.03 252.23C505.81 252.1 505.54 252.03 505.2 252.03V251.87L505.18 251.86Z" fill="black"/>
<path d="M530.88 267.55V267.71H524.49C523.26 267.71 522.19 267.58 521.27 267.31C520.35 267.04 519.41 266.54 518.45 265.8C517.49 265.06 516.72 264.14 516.13 263.03C515.54 261.93 515.24 260.8 515.24 259.64C515.24 258.38 515.61 257.12 516.35 255.86C517.09 254.6 518.15 253.58 519.52 252.8C520.89 252.02 522.44 251.62 524.18 251.62C525.74 251.62 527.38 251.96 529.12 252.65L529.78 254.48H529.62C529.07 253.78 528.31 253.19 527.36 252.73C526.4 252.27 525.34 252.04 524.16 252.04C522.12 252.04 520.44 252.81 519.14 254.35C517.84 255.89 517.18 257.8 517.18 260.08C517.18 261.03 517.29 261.87 517.5 262.61C517.71 263.35 518.12 264.08 518.71 264.81C519.3 265.53 519.94 266.06 520.61 266.4C521.29 266.74 522.05 266.98 522.89 267.11C523.73 267.24 524.4 267.3 524.89 267.29L525.74 267.27C526.7 267.23 527.3 267.14 527.54 267C527.78 266.86 527.9 266.49 527.9 265.9V263.5C527.9 263.03 527.8 262.72 527.61 262.56C527.42 262.4 527.14 262.33 526.78 262.35V262.19H530.88V262.35C530.42 262.35 530.11 262.44 529.96 262.62C529.81 262.8 529.73 263.14 529.73 263.65V266.14C529.73 266.64 529.8 267 529.93 267.22C530.06 267.44 530.3 267.55 530.66 267.55H530.89H530.88Z" fill="black"/>
<path d="M599.33 244.28C599.84 244.52 600.2 244.68 600.23 244.66C600.26 244.65 600.27 244.63 600.3 244.62H600.55V245.85H600.23C600.19 245.77 600.13 245.66 600.08 245.58C599.73 244.91 599.07 244.34 598.4 244.13C598.09 244.04 597.75 244 597.42 244C596.35 244 595.64 244.77 595.64 245.93C595.64 246.68 596.6 247.58 598.45 248.31C600.23 249.01 601.16 250.11 601.16 251.2C601.16 252.71 599.96 253.72 598.14 253.72C597.37 253.72 596.62 253.51 595.98 253.14C595.39 252.8 594.95 252.66 594.88 252.79C594.87 252.83 594.84 252.88 594.82 252.92H594.56V251.24H594.89C594.93 251.33 594.98 251.44 595.02 251.53C595.4 252.32 596.12 253.04 596.82 253.3C597.24 253.47 597.69 253.55 598.14 253.55C599.46 253.55 600.33 252.72 600.33 251.47C600.33 250.75 599.47 249.94 597.82 249.29C595.83 248.51 594.82 247.39 594.82 246.3C594.82 244.59 596.24 243.62 598.23 243.95C598.26 243.87 599.32 244.31 599.33 244.29V244.28Z" fill="black"/>
<path d="M605.56 244.19C608.49 243.25 611.22 244.47 612.36 247.24C613.5 250.01 612.25 252.51 609.24 253.47C606.46 254.36 603.84 253.11 602.7 250.33C601.55 247.56 602.7 245.1 605.56 244.18V244.19ZM609.21 253.35C611.57 252.6 612.4 250.29 611.29 247.59C610.17 244.89 607.89 243.58 605.59 244.32C603.4 245.02 602.67 247.29 603.78 249.99C604.9 252.69 607.07 254.03 609.21 253.35Z" fill="black"/>
<path d="M614.34 244H615.4V250.77C615.4 252.18 616.07 253.11 617.07 253.11C618.46 253.11 619.78 252.38 620.36 251.28V244.89C620.36 244.46 620.2 244.25 619.88 244.25V244H621.4V252.56C621.4 252.94 621.56 253.16 621.81 253.1H621.88V253.34C621.67 253.39 621.42 253.45 621.19 253.51L620.88 253.59H620.36V251.7C619.72 252.91 618.23 253.72 616.65 253.72C615.27 253.72 614.35 252.54 614.35 250.78V244.01L614.34 244Z" fill="black"/>
<path d="M627.43 252.68V244.23H624.98C624.24 244.23 623.61 244.55 623.18 245.02L623.06 245.16H622.81L623.13 244.14V243.99H632.77V244.14L633.09 245.16H632.84L632.72 245.02C632.3 244.55 631.67 244.23 630.92 244.23H628.47V252.68C628.47 253.11 628.63 253.32 628.95 253.32V253.58H626.93V253.32C627.25 253.32 627.41 253.11 627.41 252.68H627.43Z" fill="black"/>
<path d="M642.24 253.58H640.24V253.32C640.56 253.32 640.72 253.11 640.72 252.68V248.68H635.56V252.68C635.56 253.11 635.72 253.32 636.04 253.32V253.58H634.02V253.32C634.34 253.32 634.5 253.11 634.5 252.68V244.89C634.5 244.46 634.34 244.25 634.02 244.25V244H636.04V244.25C635.72 244.25 635.56 244.46 635.56 244.89V248.55H640.72V244.89C640.72 244.46 640.56 244.25 640.24 244.25V244H642.24V244.25C641.92 244.25 641.76 244.46 641.76 244.89V252.68C641.76 253.11 641.92 253.32 642.24 253.32V253.58Z" fill="black"/>
<path d="M650.65 253.26H650.82V253.58H648.34V253.26H648.53C649.09 253.26 649.64 252.82 649.94 252.15L652.72 244.41L652.67 244.28C653.18 244.22 653.5 244 653.44 243.74H653.54C654.53 246.55 655.51 249.35 656.5 252.16C656.77 252.83 657.11 253.26 657.4 253.26H657.5V253.58H654.69V253.26H654.86C655.39 253.26 655.59 252.78 655.36 252.06L654.6 249.87H650.9L650.16 251.98C649.88 252.75 650.07 253.26 650.62 253.26H650.65ZM652.78 244.57L650.97 249.73H654.57L652.78 244.57Z" fill="black"/>
<path d="M664.7 244V244.04H664.72C664.76 244.37 664.82 244.82 664.86 245.15H664.61L664.54 244.98C664.25 244.44 663.6 244.09 662.9 244.09H660.2V248.53H661.87C662.57 248.53 663.17 248.17 663.38 247.64L663.44 247.47H663.69V249.72H663.44L663.38 249.55C663.18 249.01 662.57 248.66 661.87 248.66H660.2V252.43C660.2 252.97 660.46 253.32 660.85 253.32H660.97V253.58H658.38V253.32H658.5C658.89 253.32 659.15 252.96 659.15 252.43V245.15C659.15 244.61 658.89 244.26 658.5 244.26H658.38V244.01H664.7V244Z" fill="black"/>
<path d="M682.09 256.8C681.18 257.52 679.39 258.05 676.81 255.53L674.74 253.57L670.08 248.95H668.5V252.68C668.5 253.11 668.66 253.32 668.98 253.32V253.58H666.96V253.32C667.28 253.32 667.44 253.11 667.44 252.68V247.18C667.44 247.18 667.5 247.18 667.53 247.19C667.79 247.22 668.05 247.21 668.31 247.17C668.37 247.16 668.44 247.15 668.5 247.13V248.71H670.36C671.66 248.71 672.54 248.02 672.54 246.49C672.54 245.1 671.54 244.18 670.05 244.18C669.58 244.18 668.98 244.17 668.51 244.17V245.65C668.56 245.6 668.61 245.56 668.66 245.51C668.74 245.44 668.81 245.36 668.91 245.31C669.05 245.23 669.2 245.2 669.35 245.26C669.52 245.32 669.63 245.43 669.69 245.58C669.75 245.73 669.73 245.88 669.67 246.03C669.59 246.22 669.45 246.37 669.27 246.51C668.99 246.72 668.67 246.84 668.32 246.9C668.06 246.94 667.8 246.95 667.54 246.92C667.35 246.9 667.17 246.85 667 246.79C666.67 246.68 666.37 246.51 666.12 246.29C665.91 246.11 665.74 245.88 665.67 245.63C665.59 245.35 665.6 245.07 665.74 244.81C665.86 244.59 666.03 244.41 666.24 244.25C666.37 244.16 666.51 244.09 666.66 244.04C666.82 243.99 666.8 243.98 666.97 243.97V244.22C666.7 244.25 666.44 244.38 666.24 244.55C666.09 244.68 666 244.84 665.94 245.01C665.87 245.21 665.86 245.44 665.97 245.64C666.09 245.86 666.35 246 666.61 246.08C666.84 246.15 667.08 246.18 667.32 246.17C667.36 246.17 667.41 246.17 667.45 246.17V244.87C667.45 244.44 667.29 244.23 666.97 244.23V243.98H670.36C672.36 243.98 673.7 245.05 673.7 246.67C673.7 247.94 672.82 248.64 671.41 248.86L675.34 252.79C676.34 253.89 678.11 255.5 678.99 256.19C680.47 257.36 681.31 257.16 681.84 256.74C682.24 256.43 681.46 256.02 681.86 255.71C682.08 255.54 682.35 255.55 682.55 255.74C682.78 255.96 682.6 256.39 682.09 256.79V256.8ZM674.78 244.25V244H676.8V244.25C676.48 244.25 676.32 244.46 676.32 244.89V252.68C676.32 253.11 676.48 253.32 676.8 253.32V253.58H676.49C676.07 253.17 675.67 252.77 675.35 252.42L675.27 252.34V244.9C675.27 244.47 675.11 244.26 674.79 244.26L674.78 244.25Z" fill="black"/>
<path d="M679.35 247.96C679.33 248.09 679.32 248.22 679.32 248.36C679.32 248.36 679.32 248.37 679.32 248.38C679.32 248.51 679.31 248.65 679.31 248.79V248.85C679.33 251.69 680.85 253.57 683.11 253.57C683.85 253.57 684.43 253.44 684.95 253.22C685.57 252.94 686.23 252.35 686.61 251.69C686.65 251.63 686.71 251.53 686.76 251.46H687.08V252.84H686.83C686.83 252.84 686.77 252.78 686.76 252.75C686.63 252.61 685.73 253.12 685.73 253.12C685.07 253.49 684.25 253.7 683.06 253.7C680.12 253.7 678.16 251.73 678.16 248.78C678.16 248.69 678.16 248.61 678.16 248.52C678.16 248.47 678.16 248.43 678.16 248.39C678.16 248.35 678.16 248.31 678.16 248.27C678.16 248.22 678.17 248.17 678.18 248.12C678.18 248.09 678.18 248.06 678.19 248.02C678.19 247.97 678.2 247.93 678.21 247.89V247.81H678.22C678.61 245.41 680.44 243.87 683.04 243.87C684.23 243.87 685.05 244.08 685.71 244.44C685.71 244.44 686.61 244.95 686.74 244.81C686.75 244.78 686.8 244.75 686.81 244.72H687.06V246.1H686.74C686.7 246.04 686.64 245.93 686.59 245.87C686.21 245.22 685.55 244.62 684.93 244.34C684.42 244.12 683.83 243.99 683.09 243.99C681.04 243.99 679.6 245.54 679.34 247.95L679.35 247.96Z" fill="black"/>
<path d="M690.14 253.26H690.31V253.58H687.83V253.26H688.02C688.58 253.26 689.13 252.82 689.43 252.15L692.21 244.41L692.16 244.28C692.67 244.22 692.99 244 692.93 243.74H693.03C694.02 246.55 695 249.35 695.99 252.16C696.26 252.83 696.6 253.26 696.89 253.26H696.99V253.58H694.18V253.26H694.35C694.88 253.26 695.08 252.78 694.85 252.06L694.09 249.87H690.39L689.65 251.98C689.37 252.75 689.56 253.26 690.11 253.26H690.14ZM692.27 244.57L690.46 249.73H694.06L692.27 244.57Z" fill="black"/>
<path d="M224.78 167.25C223.9 167.87 223.09 168.56 222.22 169.19C221.59 169.69 220.84 170 220.09 170C219.59 170 219.03 169.87 218.46 169.56C217.84 169.25 217.4 168.68 217.4 168.06C217.4 167.69 217.59 167.31 217.96 166.93C220.21 164.87 222.71 162.99 225.84 162.55C226.09 162.55 226.28 162.49 226.53 162.49C228.22 162.49 229.84 163.43 229.84 165.49C229.84 165.93 229.78 166.43 229.59 166.93C228.9 169.31 227.65 171.49 226.46 173.68C223.33 179.62 219.71 185.18 216.33 190.93C210.27 201.06 203.95 211.06 198.14 221.37C197.95 221.81 197.64 222.18 197.52 222.81H200.27C205.27 222.56 210.33 222.5 215.33 222.5C220.33 222.5 225.4 222.56 230.4 222.62C235.71 222.74 241.03 223 246.34 223.56C247.28 223.68 248.28 223.68 249.28 223.81C249.47 223.87 249.59 223.87 249.72 223.87C250.22 223.87 250.6 223.62 250.91 223.06C260.41 206.87 270.98 191.37 281.42 175.74C282.61 173.93 283.8 172.11 284.8 170.18C284.99 169.87 285.11 169.56 285.11 169.3C285.11 168.99 284.98 168.74 284.61 168.42C284.36 168.23 284.23 167.98 284.23 167.67C284.23 167.36 284.36 167.04 284.54 166.73C285.16 165.85 286.29 165.42 287.42 165.42C288.11 165.42 288.73 165.61 289.23 165.98C289.79 166.42 290.04 166.92 290.04 167.54C290.04 167.73 290.04 167.91 289.98 168.1C289.73 168.98 289.29 169.79 288.85 170.54C287.79 172.54 286.41 174.35 285.16 176.23C275.85 189.98 266.41 203.74 257.78 217.93C256.53 219.93 255.34 221.99 254.09 224.12C255.22 224.56 256.28 224.49 257.28 224.62C259.59 225 261.97 225.25 264.28 225.56C267.97 226.12 271.66 226.56 275.41 226.81C275.91 226.81 276.35 226.87 276.85 227.12C277.47 227.43 277.91 227.87 277.91 228.62C277.85 229.25 277.41 229.81 276.66 230C276.22 230.12 275.85 230.19 275.41 230.19C275.16 230.19 274.91 230.13 274.66 230.13C270.91 229.69 267.22 228.69 263.53 228C260.34 227.44 257.15 226.94 253.9 226.5C253.65 226.44 253.46 226.44 253.28 226.44C252.84 226.44 252.72 226.63 252.28 227.38C250.09 231.26 248.03 235.19 245.97 239.13C241.41 247.76 237.41 256.63 234.09 265.76C233.59 267.14 232.65 268.01 231.21 268.26C231.02 268.26 230.9 268.32 230.71 268.32C230.15 268.32 229.71 268.13 229.27 267.63C229.08 267.38 229.02 267.13 229.02 266.88C229.02 266.51 229.15 266.19 229.27 265.88C234.52 252.5 241.33 239.94 248.34 227.43C248.71 226.81 248.96 226.43 248.96 226.18C248.96 225.87 248.52 225.87 247.52 225.74C244.64 225.37 241.71 225.12 238.77 224.93C234.46 224.68 230.21 224.37 225.89 224.18C221.58 223.99 217.26 223.93 212.95 223.87H209.2C205.39 223.87 201.57 223.93 197.76 224.06C196.95 224.12 196.51 224.37 196.07 225.06C189.13 237.75 182.44 250.57 177.25 264.07C176.63 265.57 175.94 267.07 175.31 268.63C175.12 269.01 174.94 269.44 174.75 269.82C174.5 270.13 174.25 270.44 173.87 270.44C173.81 270.44 173.68 270.44 173.56 270.38C173 270.19 172.87 269.69 172.87 269.19C172.87 268.63 173.06 268.13 173.18 267.63C174.18 264.44 175.56 261.44 176.99 258.44C178.55 255.38 179.37 252.13 179.87 248.81C180 248.12 180 247.43 180 246.81C180 245.81 179.94 244.87 179.69 243.93C179.13 241.74 177.81 240.18 175.94 239.12C174.06 238.06 172 237.49 169.94 236.99C167.75 236.43 165.63 235.86 163.56 235.05C162.94 234.8 162.37 234.49 161.75 234.17C160.62 233.61 159.94 232.42 159.94 231.23C159.94 230.29 160.38 229.29 161.31 228.54C162.87 227.29 164.75 226.54 166.69 225.98C169.38 225.17 172.13 224.79 174.88 224.48C179.57 223.92 184.19 223.61 188.82 223.35C190.63 223.23 192.38 223.16 194.13 223.04C194.82 222.98 195.32 222.79 195.69 222.16C203.13 208.97 211.26 196.15 218.82 183.03C220.95 179.34 223.01 175.59 224.88 171.78C225.38 170.59 225.94 169.4 226.32 168.15C226.44 167.78 226.57 167.34 226.57 166.9C226.57 166.65 226.57 166.46 226.44 166.21C225.69 166.46 225.25 166.83 224.75 167.21L224.78 167.25ZM193.59 224.14C193.34 224.14 193.09 224.2 192.84 224.2C192.03 224.26 191.21 224.32 190.46 224.39C186.08 224.58 181.65 224.77 177.27 225.14C174.58 225.45 171.83 225.76 169.14 226.33C166.7 226.83 164.33 227.52 162.26 229.02C161.64 229.46 161.07 229.96 160.7 230.65C160.51 231.03 160.39 231.34 160.39 231.65C160.39 232.09 160.64 232.46 161.08 232.84C161.89 233.53 162.83 233.97 163.77 234.4C165.71 235.15 167.77 235.77 169.83 236.4C171.71 236.9 173.64 237.46 175.46 238.34C177.96 239.59 179.71 241.53 180.21 244.34C180.4 245.21 180.46 246.15 180.46 247.03C180.46 248.16 180.34 249.22 180.15 250.28C180.15 250.47 180.09 250.66 180.09 250.84C180.09 251.02 180.15 251.22 180.28 251.4C184.72 242.21 189.53 233.27 194.47 224.33C194.16 224.21 193.85 224.14 193.59 224.14Z" fill="black"/>
<path d="M312.52 228.77C306.78 231.71 300.97 234.37 294.82 236.22C292.36 236.97 289.83 237.52 287.3 237.59H287.16C284.49 237.59 282.51 235.47 282.51 232.87V232.53C282.58 231.1 283.06 229.8 283.67 228.5C285.45 224.81 287.91 221.6 290.5 218.52C291.05 217.9 291.73 217.63 292.48 217.63C292.75 217.63 292.96 217.63 293.16 217.7C293.64 217.84 294.05 218.11 294.19 218.59C294.26 218.73 294.26 218.79 294.26 218.93C294.26 219.27 293.99 219.61 293.64 219.82C290.7 221.87 288.51 224.53 286.46 227.41C285.3 229.12 284.34 230.89 283.93 232.95C283.86 233.29 283.86 233.63 283.86 233.91C283.86 235.48 284.68 236.37 286.46 236.71C287.14 236.85 287.83 236.91 288.51 236.91C289.6 236.91 290.63 236.77 291.65 236.5C295.89 235.54 299.99 234.04 304.02 232.26C307.57 230.55 311.26 228.98 314.68 227C314.82 226.93 314.95 226.8 315.16 226.8C315.23 226.8 315.37 226.87 315.5 226.94C314.54 227.76 313.52 228.24 312.49 228.79L312.52 228.77ZM296.39 214.21C296.18 213.94 296.12 213.73 296.12 213.46C296.12 213.19 296.26 212.84 296.6 212.57C297.01 212.23 297.49 211.82 297.97 211.48C298.38 211.14 298.79 211 299.27 211C299.68 211 300.09 211.14 300.5 211.41C301.05 211.75 301.39 212.23 301.39 212.71C301.39 213.12 301.18 213.53 300.64 213.87C299.96 214.42 299.27 215.1 298.52 215.17C297.49 215.17 296.88 214.83 296.4 214.21H296.39Z" fill="black"/>
<path d="M362.61 225.69C357.89 229.86 352.9 233.69 347.03 236.08C344.98 236.97 342.86 237.58 340.54 237.58C337.12 237.51 335.55 235.19 335.21 232.04C335.14 231.36 335.14 230.67 335.14 229.85C334.52 229.92 333.98 230.12 333.43 230.12C333.09 230.12 332.75 230.05 332.47 229.85C332.06 229.58 331.99 229.23 331.99 228.89C331.99 228.48 332.13 228 332.13 227.52V227.25C331.45 227.39 331.04 227.87 330.63 228.21C327.96 230.06 325.23 231.83 322.09 232.93C321.13 233.27 320.18 233.41 319.36 233.41C316.56 233.41 314.64 231.7 314.64 229.04C314.64 228.15 314.91 227.06 315.46 225.9C316.21 224.47 317.24 223.17 318.4 222.14C321.34 219.47 324.62 217.56 328.65 217.36H328.99C332.2 217.36 334.59 219.27 335.62 222.35C335.76 222.62 335.83 222.83 335.89 223.17C336.91 222.69 337.53 222.01 338.01 221.05C340.88 214.63 344.23 208.41 348.12 202.53C352.49 195.97 357.28 189.82 363.09 184.55C364.66 183.12 368.08 180.24 370.2 180.18H370.27C371.57 180.18 371.98 180.93 371.98 181.89C371.98 182.98 371.5 184.21 371.16 184.97C368.29 190.92 364.53 195.84 360.09 200.76C355.1 206.36 349.77 211.56 344.3 216.69C342.86 218.12 341.29 219.42 339.79 220.79C339.38 221.13 339.04 221.41 338.83 221.88C337.46 224.68 336.37 227.48 335.82 230.56C335.75 230.97 335.75 231.31 335.75 231.72C335.75 234.66 337.6 237.05 340.81 237.05C341.15 237.05 341.49 237.05 341.9 236.98C345.86 236.36 349.35 234.59 352.77 232.61C356.67 230.29 360.15 227.42 363.43 224.27C363.77 223.93 363.98 223.52 364.66 223.52H364.8C364.18 224.48 363.37 225.09 362.61 225.71V225.69ZM328.16 218.79H327.75C326.52 218.79 325.36 219.06 324.33 219.41C318.66 221.32 315.45 226.04 315.45 229.25C315.45 231.23 316.61 232.73 319.21 232.73C320.3 232.73 321.74 232.46 323.45 231.77C326.32 230.54 328.85 228.76 331.45 226.99C332.54 226.17 332.82 225.28 332.82 224.19C332.82 223.78 332.82 223.37 332.75 222.89C332.48 220.29 330.77 218.79 328.17 218.79H328.16ZM336.02 224.39C336.02 224.59 336.09 224.8 336.22 225.07C336.56 224.52 336.77 224.11 336.84 223.5C336.29 223.71 336.02 223.98 336.02 224.39ZM341.28 218.65C345.04 215.23 348.8 211.75 352.42 208.12C356.86 203.75 361.1 199.23 364.79 194.18C366.98 191.17 369.03 188.1 370.6 184.61C370.8 184.13 371.35 182.9 371.35 182.01C371.35 181.39 371.08 180.92 370.39 180.92H370.12C367.87 181.26 364.17 184.95 362.67 186.59C353.92 196.16 346.61 206.82 340.59 218.3C340.39 218.64 340.18 218.98 340.18 219.46V219.6C340.59 219.26 340.93 218.98 341.27 218.65H341.28Z" fill="black"/>
<path d="M393.03 227.06C387.97 231.03 382.64 234.37 376.49 236.29C374.03 237.04 371.64 237.59 369.18 237.59C368.5 237.59 367.81 237.52 367.2 237.45C365.9 237.31 364.74 236.97 363.58 236.36C361.39 235.2 360.3 233.49 360.3 231.3C360.3 230.75 360.37 230.21 360.51 229.66C360.58 229.25 360.78 228.91 360.78 228.5C360.78 228.36 360.71 228.23 360.71 228.09C360.57 227.88 360.57 227.75 360.57 227.54C360.57 227.13 360.84 226.86 361.25 226.65C361.93 226.45 362.21 225.9 362.62 225.42C365.83 221.18 370.07 218.52 375.26 217.42C375.81 217.28 376.35 217.21 376.97 217.21C377.38 217.21 377.79 217.21 378.27 217.28C379.91 217.42 380.8 218.3 380.8 219.74C380.8 220.01 380.8 220.36 380.73 220.7C380.53 221.79 379.91 222.61 379.16 223.43C377.11 225.75 374.58 227.33 371.71 228.28C369.66 228.9 367.61 229.44 365.56 229.44C364.53 229.44 363.51 229.3 362.55 229.03C362.41 229.03 362.35 228.96 362.28 228.96C361.94 228.96 361.8 229.17 361.8 229.44C361.59 229.99 361.46 230.6 361.46 231.29C361.46 232.59 361.94 233.96 363.31 234.98C364.95 236.21 366.86 236.69 368.91 236.83H369.87C371.72 236.83 373.49 236.56 375.34 236.01C381.56 234.37 387.03 231.3 391.95 227.26C392.91 226.51 393.86 225.76 394.75 225.01L394.96 225.21C394.41 225.83 393.73 226.51 393.05 227.06H393.03ZM365.69 227.2H366.17C371.36 227.2 375.74 225.01 379.22 221.05C379.43 220.84 379.56 220.57 379.7 220.3C379.84 219.96 379.97 219.68 379.97 219.48C379.97 219 379.56 218.66 378.94 218.46C378.39 218.26 377.91 218.19 377.37 218.19C377.1 218.19 376.75 218.19 376.48 218.26C375.11 218.46 373.75 218.81 372.45 219.28C368.83 220.85 365.68 223.04 363.22 226.39C364.52 227.14 364.65 227.21 365.68 227.21L365.69 227.2Z" fill="black"/>
<path d="M444.15 224.73C444.22 224.66 444.29 224.59 444.35 224.59C444.41 224.59 444.49 224.73 444.49 224.8C444.49 224.87 444.49 224.94 444.42 225C444.28 225.34 444.01 225.55 443.8 225.75C438.4 231.22 432.18 235.32 424.66 237.16C423.5 237.43 422.34 237.57 421.18 237.57C417.08 237.57 413.93 235.45 413.39 230.39C413.39 229.98 413.32 229.57 413.32 229.16C413.32 228.13 413.46 227.11 413.8 226.22C413.87 226.08 413.87 226.02 413.87 225.88C413.87 225.81 413.87 225.68 413.73 225.54C412.98 226.29 412.3 227.11 411.54 227.86C409.29 230.18 406.96 232.51 404.16 234.15C402.52 235.11 400.81 235.86 398.9 235.86H398.63C396.51 235.72 394.94 234.7 394.26 232.65C393.85 231.56 393.71 230.46 393.71 229.44C393.71 227.73 394.19 226.09 395.08 224.52C397.34 220.69 400.89 218.78 405.26 218.37C405.67 218.3 406.08 218.3 406.49 218.3C409.63 218.3 412.37 219.46 414.76 221.51C414.96 221.72 415.17 221.85 415.38 222.06C415.79 221.79 415.86 221.38 416.06 221.1C416.95 219.53 417.84 218.03 418.73 216.45C419.21 215.7 419.96 215.43 420.64 215.43C421.19 215.43 421.73 215.57 422.07 215.84C422.48 216.11 422.69 216.46 422.69 216.8C422.69 217.07 422.49 217.35 422.07 217.62C418.72 219.81 416.81 223.16 414.96 226.5C414.28 227.94 413.93 229.3 413.93 230.6C413.93 234.29 416.66 237.09 420.97 237.09C421.66 237.09 422.34 237.02 423.02 236.89C431.43 235.25 438.33 230.94 444.14 224.72L444.15 224.73ZM394.53 230.33C394.73 233.06 396.44 234.64 398.9 234.64C399.31 234.64 399.72 234.57 400.13 234.5C401.43 234.23 402.52 233.82 403.62 233.13C407.17 231.01 409.91 227.94 412.64 224.93C412.78 224.72 412.84 224.59 412.84 224.38C412.84 224.24 412.84 224.11 412.7 223.9C411.81 221.85 410.24 220.55 408.05 220.07C407.16 219.87 406.27 219.73 405.32 219.73C402.93 219.73 400.61 220.55 398.49 221.99C396.1 223.63 394.52 226.02 394.52 229.1V230.33H394.53Z" fill="black"/>
<path d="M483.58 230.13C479.55 233.27 475.17 235.87 470.11 237.1C468.81 237.44 467.44 237.58 466.08 237.58C465.53 237.58 465.05 237.58 464.51 237.51C464.17 237.51 463.83 237.44 463.49 237.37C460.28 236.69 459.18 234.5 459.18 231.9C459.18 231.56 459.18 231.22 459.25 230.81C459.39 229.72 459.73 228.69 460 227.6H459.93C458.63 227.6 451.32 233.34 449.95 234.37C448.72 235.19 447.42 236.01 446.05 236.62C445.23 236.96 444.41 237.31 443.52 237.31C441.2 237.31 439.62 235.81 439.62 233.62C439.62 233.41 439.62 233.28 439.69 233.07C439.89 231.7 440.31 230.54 440.92 229.31C442.15 226.85 443.72 224.66 445.57 222.68C447.07 221.04 448.65 219.4 450.22 217.83C450.56 217.35 451.18 217.15 451.79 217.15C452.4 217.15 453.09 217.42 453.57 217.9C453.84 218.24 453.98 218.52 453.98 218.79C453.98 219.2 453.77 219.54 453.36 219.82C449.46 222.07 446.73 225.42 444.2 229.05C443.52 230.08 442.97 231.17 442.63 232.33C442.49 232.88 442.36 233.35 442.36 233.76C442.36 234.85 442.91 235.4 444 235.4C444.41 235.4 444.89 235.33 445.43 235.2C447.41 234.72 449.33 233.77 451.03 232.53C452.06 231.85 458.14 227.13 459.71 227.13C459.78 227.13 459.91 227.13 459.98 227.2C460.19 227.34 460.25 227.54 460.25 227.75C460.25 228.16 460.04 228.57 459.98 228.91C459.78 229.87 459.5 230.76 459.43 231.64V231.91C459.43 233.21 459.84 234.37 461 235.19C462.09 235.94 463.39 236.28 464.69 236.42C465.31 236.49 465.85 236.49 466.47 236.49C469.07 236.49 471.6 235.94 474.06 234.92C477.96 233.35 481.44 231.02 484.72 228.43C485.34 227.95 485.61 227.47 485.61 226.72V226.45C485.54 226.25 485.54 226.04 485.54 225.9C485.54 223.99 486.5 222.42 487.93 221.05C488.41 220.64 488.89 220.36 489.43 220.23C489.64 220.16 489.84 220.09 490.05 220.09C490.73 220.09 491.08 220.57 491.08 221.32V221.59C491.01 222.14 490.74 222.48 490.46 222.89C489.5 224.46 488.34 225.76 487.04 227.06C486.49 227.54 486.29 227.74 486.29 228.02C486.29 228.3 486.5 228.57 486.91 229.04C488.14 230.75 489.92 231.71 491.83 232.25C494.36 233 496.96 233.21 499.62 233.21H500.1C506.46 233.21 512.54 231.98 518.49 229.72C520.27 228.97 522.04 228.22 523.62 227.05C523.76 226.98 523.89 226.85 524.03 226.78C524.03 226.78 524.1 226.71 524.17 226.71C524.31 226.71 524.44 226.78 524.51 226.91C524.51 226.98 524.58 227.05 524.58 227.11C524.58 227.17 524.51 227.32 524.44 227.38C523.96 227.65 523.55 228 523.07 228.27C520.13 230.05 516.92 231.07 513.57 231.89C510.29 232.78 506.87 233.39 503.46 233.6C502.23 233.67 501 233.74 499.77 233.74C497.17 233.74 494.58 233.54 492.05 232.85C489.38 232.23 486.92 231.21 485.83 228.34H485.9C484.94 228.82 484.33 229.57 483.58 230.12V230.13ZM489.94 222.95C490.21 222.61 490.42 222.27 490.56 221.92C490.63 221.72 490.63 221.58 490.63 221.44C490.63 221.03 490.36 220.82 489.88 220.82H489.61C488.72 221.03 487.9 221.44 487.35 222.26C486.67 223.28 486.19 224.38 486.19 225.81C486.19 226.22 486.19 226.63 486.33 227.11C487.7 225.61 488.93 224.31 489.95 222.94L489.94 222.95Z" fill="black"/>
<path d="M574.21 224.73C574.28 224.66 574.35 224.59 574.41 224.59C574.47 224.59 574.55 224.73 574.55 224.8C574.55 224.87 574.55 224.94 574.48 225C574.34 225.34 574.07 225.55 573.86 225.75C568.46 231.22 562.24 235.32 554.72 237.16C553.56 237.43 552.4 237.57 551.24 237.57C547.14 237.57 543.99 235.45 543.45 230.39C543.45 229.98 543.38 229.57 543.38 229.16C543.38 228.13 543.52 227.11 543.86 226.22C543.93 226.08 543.93 226.02 543.93 225.88C543.93 225.81 543.93 225.68 543.79 225.54C543.04 226.29 542.36 227.11 541.6 227.86C539.35 230.18 537.02 232.51 534.22 234.15C532.58 235.11 530.87 235.86 528.96 235.86H528.69C526.57 235.72 525 234.7 524.32 232.65C523.91 231.56 523.77 230.46 523.77 229.44C523.77 227.73 524.25 226.09 525.14 224.52C527.4 220.69 530.95 218.78 535.32 218.37C535.73 218.3 536.14 218.3 536.55 218.3C539.69 218.3 542.43 219.46 544.82 221.51C545.02 221.72 545.23 221.85 545.44 222.06C545.85 221.79 545.92 221.38 546.12 221.1C547.01 219.53 547.9 218.03 548.79 216.45C549.27 215.7 550.02 215.43 550.7 215.43C551.25 215.43 551.79 215.57 552.13 215.84C552.54 216.11 552.75 216.46 552.75 216.8C552.75 217.07 552.55 217.35 552.13 217.62C548.78 219.81 546.87 223.16 545.02 226.5C544.34 227.94 543.99 229.3 543.99 230.6C543.99 234.29 546.72 237.09 551.03 237.09C551.72 237.09 552.4 237.02 553.08 236.89C561.49 235.25 568.39 230.94 574.2 224.72L574.21 224.73ZM524.59 230.33C524.79 233.06 526.5 234.64 528.96 234.64C529.37 234.64 529.78 234.57 530.19 234.5C531.49 234.23 532.58 233.82 533.68 233.13C537.23 231.01 539.97 227.94 542.7 224.93C542.84 224.72 542.9 224.59 542.9 224.38C542.9 224.24 542.9 224.11 542.76 223.9C541.87 221.85 540.3 220.55 538.11 220.07C537.22 219.87 536.33 219.73 535.38 219.73C532.99 219.73 530.67 220.55 528.55 221.99C526.16 223.63 524.58 226.02 524.58 229.1V230.33H524.59Z" fill="black"/>
<path d="M626.97 226.31C626.63 227.06 626.29 226.99 625.88 227.06C623.9 227.2 621.85 227.2 619.86 227.54C616.17 228.09 612.55 228.91 608.86 229.73C603.6 230.96 598.34 232.33 593.28 234.31C591.98 234.79 591.03 235.54 590.41 236.77C583.71 248.46 574.76 258.09 563.89 266.02C561.16 267.93 558.42 269.71 555.35 271.01C553.3 271.9 551.25 272.51 549.06 272.65H548.17C545.3 272.51 544.14 271.28 544.14 269.37C544.14 268.82 544.28 268.21 544.41 267.52C544.96 265.54 546.19 263.9 547.42 262.39C551.11 257.81 555.55 254.19 560.27 250.77C569.29 244.41 579.13 239.42 589.38 235.32C590.47 234.84 591.23 234.23 591.84 233.27C594.03 229.85 595.87 226.23 597.58 222.61C598.06 221.52 598.4 220.35 598.81 219.19C598.95 218.85 599.02 218.44 599.08 218.1V217.83C599.08 217.21 598.94 216.94 598.46 216.94C598.25 216.94 598.05 217.01 597.78 217.08C597.16 217.29 596.62 217.7 596.07 218.04C593.34 219.88 590.81 221.93 588.28 223.98C586.64 225.48 584.86 226.85 583.02 228.15C581.72 229.11 580.35 229.86 578.78 230.34C578.23 230.55 577.69 230.61 577.14 230.61C575.16 230.61 573.79 229.24 573.79 227.12C573.79 226.71 573.86 226.3 573.93 225.82C574.55 222.95 575.91 220.35 577.62 217.96C578.44 216.93 579.26 215.91 580.08 214.95C580.63 214.27 581.31 213.99 582.13 213.99C582.33 213.99 582.61 213.99 582.88 214.06C583.43 214.2 583.97 214.47 584.18 215.15C584.18 215.22 584.25 215.29 584.25 215.36C584.25 215.84 583.84 216.18 583.5 216.45C581.45 218.09 579.95 220.21 578.72 222.46C578.04 223.69 577.49 224.92 577.15 226.22C577.08 226.63 576.94 226.97 576.94 227.38V227.58C576.94 228.33 577.21 228.54 577.83 228.54H578.24C579.33 228.4 580.29 227.99 581.25 227.51C583.03 226.69 584.6 225.53 586.24 224.43C589.32 222.24 592.26 219.85 595.47 217.8C596.22 217.32 596.97 216.84 597.86 216.57C598.2 216.5 598.48 216.43 598.68 216.43C599.23 216.43 599.43 216.77 599.5 217.59V218.07C599.5 218.82 599.43 219.5 599.23 220.19C598.34 223.2 596.91 225.93 595.33 228.67C594.37 230.45 593.28 232.15 592.05 234.21C603.47 229.84 614.88 227.17 626.98 226.28L626.97 226.31ZM588.9 236.08C585.76 237.38 582.61 238.75 579.61 240.25C570.11 244.97 560.95 250.23 552.95 257.27C550.28 259.59 547.82 262.19 546.12 265.33C545.5 266.49 545.09 267.72 544.96 269.09V269.5C544.96 270.66 545.3 270.93 546.67 271.28C547.08 271.35 547.49 271.42 547.9 271.42C548.17 271.42 548.38 271.42 548.65 271.35C550.77 271.01 552.75 270.39 554.6 269.57C558.7 267.72 562.32 265.2 565.81 262.46C574.35 255.63 581.6 247.49 588.09 238.74C588.77 237.78 589.39 236.83 590.21 235.73C589.59 235.8 589.25 235.93 588.91 236.07L588.9 236.08Z" fill="black"/>
<path d="M632.64 231.43C631.89 231.7 631.27 232.05 630.93 233C630.45 234.23 629.36 235.05 628.26 235.8C626.62 236.76 624.84 237.44 622.93 237.58C622.86 237.58 622.73 237.65 622.66 237.65C622.52 237.65 622.46 237.58 622.39 237.58C621.98 237.58 621.64 237.51 621.5 237.17V237.03C621.5 236.76 621.7 236.55 621.84 236.35C622.46 235.73 623.14 235.26 623.96 234.85C625.6 233.82 627.38 233.07 629.15 232.32C629.83 232.05 630.11 231.84 630.11 231.5C630.11 231.3 630.04 231.02 629.84 230.68C629.43 229.72 628.75 228.83 627.86 228.22C625.88 226.79 623.96 225.21 622.19 223.44C621.44 222.62 620.96 221.87 620.96 220.98C620.96 220.5 621.1 219.96 621.37 219.41C621.85 218.39 622.46 217.57 623.35 216.88C627.86 213.39 632.92 211.21 638.59 210.59C639 210.52 639.41 210.52 639.82 210.52C640.78 210.52 641.8 210.73 642.76 211.14C644.54 211.96 645.49 213.6 645.49 215.31C645.49 216.13 645.29 216.95 644.81 217.77C644.33 218.45 643.79 218.79 643.1 218.79C642.69 218.79 642.28 218.65 641.8 218.38C641.05 217.9 640.71 217.36 640.71 216.74C640.71 216.33 640.85 215.92 641.12 215.44C641.6 214.76 641.81 214.21 641.81 213.8C641.81 213.12 641.19 212.78 639.83 212.64C639.35 212.57 638.81 212.57 638.33 212.57C636.28 212.57 634.3 212.98 632.31 213.53C629.37 214.28 626.71 215.58 624.18 217.22C623.5 217.7 622.88 218.18 622.4 218.72C621.85 219.4 621.51 220.09 621.51 220.77C621.51 221.59 621.92 222.34 622.67 222.96C623.49 223.58 624.31 224.05 625.13 224.6C626.36 225.35 627.59 226.1 628.75 227.06C630.12 228.22 631 229.45 631.42 231.23C631.49 231.3 631.62 231.3 631.69 231.3C631.9 231.3 632.1 231.16 632.37 231.1C659.61 221.41 680.86 218.49 688.52 217.26C690.16 217.06 691.8 216.85 693.44 216.85H693.71C694.19 216.85 694.74 216.92 695.35 217.47C684 218.7 665.69 221.48 632.64 231.45V231.43ZM622.32 236.83C622.59 236.9 622.8 236.9 623.07 236.9C625.74 236.9 629.36 234.78 629.77 232.8C627.52 233.28 623.28 235.53 622.32 236.83Z" fill="black"/>
<path d="M145.86 203.16L147.08 205.78C141.56 225.82 123.22 234.95 101.15 228.31L24.51 205.23C12.68 201.67 4.54 204.14 1.36 211.39C0.87 211.01 0.42 210.59 0 210.14L1.54 206.5C3.62 201.94 7.06 198.54 11.5 196.38C11.68 195.35 11.8 194.21 11.8 192.89V41.83C11.8 35.51 9.72 32.46 5.61 32.46V28.71H31.66V32.46C27.55 32.46 25.47 35.51 25.47 41.83V191.02C25.47 191.96 25.51 192.84 25.57 193.69C29.55 193.81 33.85 194.52 38.38 195.89L104.58 215.82C125.45 222.11 142.05 216.96 145.86 203.16Z" fill="url(#paint11_linear_91_2)"/>
<path d="M281.63 42.77C269.06 59.61 256.64 76.6 244.13 93.51L283.22 155.23H283.32C287.51 161.81 290.75 165.54 293.07 165.54V169.29H265.89V165.54C270.42 165.54 271.38 162.97 268 156.89L235.23 104.92L201.33 155.24H201.42C197.3 161.43 198.23 165.55 203.86 165.55H205.55V169.3H181.18V165.55C186.17 165.55 190.6 162.71 195.17 156.86L233.54 102.24L196.04 42.78H195.99C191.8 36.2 188.74 32.47 186.24 32.47V28.72H213.04V32.47C208.6 32.47 207.59 34.88 210.72 40.75L243.1 91.88L276.41 42.78H276.39C280.51 36.59 279.58 32.47 273.95 32.47H272.26V28.72H297.19V32.47C291.77 32.47 286.65 35.88 281.63 42.78V42.77Z" fill="url(#paint12_linear_91_2)"/>
<path d="M318.51 28.71H332.19V128.05C332.19 148.67 340.81 162.35 353.74 162.35C371.73 162.35 388.79 151.67 396.29 135.55V41.83C396.29 35.51 394.21 32.46 390.1 32.46V28.71H409.78V154.29C409.78 159.91 411.84 163.1 415.03 162.16L415.97 161.97V165.72C413.28 166.49 410.07 167.34 407.05 168.17L403.04 169.29H396.29V141.55C388.04 159.36 368.74 171.17 348.31 171.17C330.5 171.17 318.51 153.93 318.51 128.06V28.71Z" fill="url(#paint13_linear_91_2)"/>
<path d="M65.8899 28.71H79.5699V128.05C79.5699 148.67 88.1899 162.35 101.12 162.35C119.11 162.35 136.17 151.67 143.67 135.55V41.83C143.67 35.51 141.59 32.46 137.48 32.46V28.71H157.16V154.29C157.16 159.91 159.22 163.1 162.41 162.16L163.35 161.97V165.72C160.66 166.49 157.45 167.34 154.43 168.17L150.42 169.29H143.67V141.55C135.42 159.36 116.12 171.17 95.6899 171.17C77.8799 171.17 65.8899 153.93 65.8899 128.06V28.71Z" fill="url(#paint14_linear_91_2)"/>
<path d="M483.21 28.71C509.08 28.71 526.32 44.45 526.32 68.26C526.32 87.06 514.67 97.37 496.15 100.44C500.13 107.8 510.87 127.6 525.38 154.29C531.75 166.1 532.69 166.66 544.87 166.66V169.28C518.63 169.28 517.32 168.72 509.44 154.29C495.16 128.09 484.95 107.91 482.45 101.44H459.21V156.17C459.21 162.49 461.29 165.54 465.4 165.54V169.29H439.35V165.54C443.46 165.54 445.54 162.49 445.54 156.17V41.83C445.54 35.51 443.46 32.46 439.35 32.46V28.71H483.21ZM483.21 98.06C500.08 98.06 511.32 87.94 511.32 65.45C511.32 45.02 498.39 31.53 479.08 31.53C473.08 31.53 465.21 31.34 459.21 31.34V98.07H483.2L483.21 98.06Z" fill="url(#paint15_linear_91_2)"/>
<path d="M568.2 32.46C564.4 32.46 564.27 36.3 567.47 42.14L604.05 104.38L636.06 42.78C639.24 36.59 637.55 32.47 631.55 32.47H629.67V28.72H653.1V32.47C647.89 32.47 643.96 35.28 640.21 41.41L604.74 106.69V152.42C604.74 160.29 608.11 165.54 613.17 165.54H614.67V169.29H581.31V165.54H582.81C587.87 165.54 591.25 160.29 591.25 152.42V108L551.93 42.77H551.89C547.98 36.32 544.74 32.46 542.52 32.46V28.71H569.51V32.46H568.2Z" fill="url(#paint16_linear_91_2)"/>
</g>
<defs>
<linearGradient id="paint0_linear_91_2" x1="73.54" y1="131.36" x2="73.54" y2="105.42" gradientUnits="userSpaceOnUse">
<stop stop-color="#F4D795" stop-opacity="0"/>
<stop offset="0.99" stop-color="#C1812B"/>
</linearGradient>
<linearGradient id="paint1_linear_91_2" x1="237.12" y1="131.36" x2="237.12" y2="105.42" gradientUnits="userSpaceOnUse">
<stop stop-color="#F4D795" stop-opacity="0"/>
<stop offset="0.99" stop-color="#C1812B"/>
</linearGradient>
<linearGradient id="paint2_linear_91_2" x1="367.24" y1="131.36" x2="367.24" y2="105.42" gradientUnits="userSpaceOnUse">
<stop stop-color="#F4D795" stop-opacity="0"/>
<stop offset="0.99" stop-color="#C1812B"/>
</linearGradient>
<linearGradient id="paint3_linear_91_2" x1="114.61" y1="131.36" x2="114.61" y2="105.42" gradientUnits="userSpaceOnUse">
<stop stop-color="#F4D795" stop-opacity="0"/>
<stop offset="0.99" stop-color="#C1812B"/>
</linearGradient>
<linearGradient id="paint4_linear_91_2" x1="492.12" y1="131.36" x2="492.12" y2="105.42" gradientUnits="userSpaceOnUse">
<stop stop-color="#F4D795" stop-opacity="0"/>
<stop offset="0.99" stop-color="#C1812B"/>
</linearGradient>
<linearGradient id="paint5_linear_91_2" x1="598" y1="131.36" x2="598" y2="105.42" gradientUnits="userSpaceOnUse">
<stop stop-color="#F4D795" stop-opacity="0"/>
<stop offset="0.99" stop-color="#C1812B"/>
</linearGradient>
<linearGradient id="paint6_linear_91_2" x1="472.9" y1="247.56" x2="472.9" y2="-17.4296" gradientUnits="userSpaceOnUse">
<stop stop-color="#F8DF7C"/>
<stop offset="0.2" stop-color="#B47F2B"/>
<stop offset="0.27" stop-color="#B6822E"/>
<stop offset="0.33" stop-color="#BE8E38"/>
<stop offset="0.39" stop-color="#CCA148"/>
<stop offset="0.45" stop-color="#DFBC5F"/>
<stop offset="0.51" stop-color="#F8DF7C"/>
<stop offset="0.52" stop-color="#FFF4A7"/>
<stop offset="0.59" stop-color="#F8DF7C"/>
<stop offset="0.84" stop-color="#B47F2B"/>
<stop offset="0.94" stop-color="#E1BF61"/>
<stop offset="1" stop-color="#F8DF7C"/>
</linearGradient>
<radialGradient id="paint7_radial_91_2" cx="0" cy="0" r="1" gradientUnits="userSpaceOnUse" gradientTransform="translate(471.941 -61.6379) rotate(89.89) scale(6.62399 163.613)">
<stop stop-color="#F1AD23"/>
<stop offset="0.15" stop-color="#F2B73F" stop-opacity="0.87"/>
<stop offset="0.49" stop-color="#F7D287" stop-opacity="0.54"/>
<stop offset="0.97" stop-color="#FEFCF9" stop-opacity="0.03"/>
<stop offset="1" stop-color="white" stop-opacity="0"/>
</radialGradient>
<radialGradient id="paint8_radial_91_2" cx="0" cy="0" r="1" gradientUnits="userSpaceOnUse" gradientTransform="translate(717.595 152.253) rotate(-172.02) scale(71.5484 17.0016)">
<stop stop-color="#F1AD23"/>
<stop offset="0.04" stop-color="#F2B436" stop-opacity="0.91"/>
<stop offset="0.14" stop-color="#F5C564" stop-opacity="0.7"/>
<stop offset="0.25" stop-color="#F7D48E" stop-opacity="0.51"/>
<stop offset="0.36" stop-color="#FAE1B0" stop-opacity="0.36"/>
<stop offset="0.47" stop-color="#FBECCD" stop-opacity="0.23"/>
<stop offset="0.58" stop-color="#FDF4E3" stop-opacity="0.13"/>
<stop offset="0.7" stop-color="#FEFAF2" stop-opacity="0.06"/>
<stop offset="0.84" stop-color="#FEFDFC" stop-opacity="0.01"/>
<stop offset="1" stop-color="white" stop-opacity="0"/>
</radialGradient>
<linearGradient id="paint9_linear_91_2" x1="330.3" y1="111.15" x2="330.3" y2="-355.17" gradientUnits="userSpaceOnUse">
<stop stop-color="#F8DF7C"/>
<stop offset="0.2" stop-color="#B47F2B"/>
<stop offset="0.27" stop-color="#B6822E"/>
<stop offset="0.33" stop-color="#BE8E38"/>
<stop offset="0.39" stop-color="#CCA148"/>
<stop offset="0.45" stop-color="#DFBC5F"/>
<stop offset="0.51" stop-color="#F8DF7C"/>
<stop offset="0.52" stop-color="#FFF4A7"/>
<stop offset="0.59" stop-color="#F8DF7C"/>
<stop offset="0.84" stop-color="#B47F2B"/>
<stop offset="0.94" stop-color="#E1BF61"/>
<stop offset="1" stop-color="#F8DF7C"/>
</linearGradient>
<radialGradient id="paint10_radial_91_2" cx="0" cy="0" r="1" gradientUnits="userSpaceOnUse" gradientTransform="translate(305.869 -235.857) rotate(89.89) scale(11.657 287.928)">
<stop stop-color="#F1AD23"/>
<stop offset="0.15" stop-color="#F2B73F" stop-opacity="0.87"/>
<stop offset="0.49" stop-color="#F7D287" stop-opacity="0.54"/>
<stop offset="0.97" stop-color="#FEFCF9" stop-opacity="0.03"/>
<stop offset="1" stop-color="white" stop-opacity="0"/>
</radialGradient>
<linearGradient id="paint11_linear_91_2" x1="73.54" y1="247.56" x2="73.54" y2="-17.43" gradientUnits="userSpaceOnUse">
<stop stop-color="#F8DF7C"/>
<stop offset="0.2" stop-color="#B47F2B"/>
<stop offset="0.27" stop-color="#B6822E"/>
<stop offset="0.33" stop-color="#BE8E38"/>
<stop offset="0.39" stop-color="#CCA148"/>
<stop offset="0.45" stop-color="#DFBC5F"/>
<stop offset="0.51" stop-color="#F8DF7C"/>
<stop offset="0.52" stop-color="#FFF4A7"/>
<stop offset="0.59" stop-color="#F8DF7C"/>
<stop offset="0.84" stop-color="#B47F2B"/>
<stop offset="0.94" stop-color="#E1BF61"/>
<stop offset="1" stop-color="#F8DF7C"/>
</linearGradient>
<linearGradient id="paint12_linear_91_2" x1="239.18" y1="247.56" x2="239.18" y2="-17.43" gradientUnits="userSpaceOnUse">
<stop stop-color="#F8DF7C"/>
<stop offset="0.2" stop-color="#B47F2B"/>
<stop offset="0.27" stop-color="#B6822E"/>
<stop offset="0.33" stop-color="#BE8E38"/>
<stop offset="0.39" stop-color="#CCA148"/>
<stop offset="0.45" stop-color="#DFBC5F"/>
<stop offset="0.51" stop-color="#F8DF7C"/>
<stop offset="0.52" stop-color="#FFF4A7"/>
<stop offset="0.59" stop-color="#F8DF7C"/>
<stop offset="0.84" stop-color="#B47F2B"/>
<stop offset="0.94" stop-color="#E1BF61"/>
<stop offset="1" stop-color="#F8DF7C"/>
</linearGradient>
<linearGradient id="paint13_linear_91_2" x1="367.23" y1="247.56" x2="367.23" y2="-17.43" gradientUnits="userSpaceOnUse">
<stop stop-color="#F8DF7C"/>
<stop offset="0.2" stop-color="#B47F2B"/>
<stop offset="0.27" stop-color="#B6822E"/>
<stop offset="0.33" stop-color="#BE8E38"/>
<stop offset="0.39" stop-color="#CCA148"/>
<stop offset="0.45" stop-color="#DFBC5F"/>
<stop offset="0.51" stop-color="#F8DF7C"/>
<stop offset="0.52" stop-color="#FFF4A7"/>
<stop offset="0.59" stop-color="#F8DF7C"/>
<stop offset="0.84" stop-color="#B47F2B"/>
<stop offset="0.94" stop-color="#E1BF61"/>
<stop offset="1" stop-color="#F8DF7C"/>
</linearGradient>
<linearGradient id="paint14_linear_91_2" x1="114.61" y1="247.56" x2="114.61" y2="-17.43" gradientUnits="userSpaceOnUse">
<stop stop-color="#F8DF7C"/>
<stop offset="0.2" stop-color="#B47F2B"/>
<stop offset="0.27" stop-color="#B6822E"/>
<stop offset="0.33" stop-color="#BE8E38"/>
<stop offset="0.39" stop-color="#CCA148"/>
<stop offset="0.45" stop-color="#DFBC5F"/>
<stop offset="0.51" stop-color="#F8DF7C"/>
<stop offset="0.52" stop-color="#FFF4A7"/>
<stop offset="0.59" stop-color="#F8DF7C"/>
<stop offset="0.84" stop-color="#B47F2B"/>
<stop offset="0.94" stop-color="#E1BF61"/>
<stop offset="1" stop-color="#F8DF7C"/>
</linearGradient>
<linearGradient id="paint15_linear_91_2" x1="492.11" y1="247.56" x2="492.11" y2="-17.43" gradientUnits="userSpaceOnUse">
<stop stop-color="#F8DF7C"/>
<stop offset="0.2" stop-color="#B47F2B"/>
<stop offset="0.27" stop-color="#B6822E"/>
<stop offset="0.33" stop-color="#BE8E38"/>
<stop offset="0.39" stop-color="#CCA148"/>
<stop offset="0.45" stop-color="#DFBC5F"/>
<stop offset="0.51" stop-color="#F8DF7C"/>
<stop offset="0.52" stop-color="#FFF4A7"/>
<stop offset="0.59" stop-color="#F8DF7C"/>
<stop offset="0.84" stop-color="#B47F2B"/>
<stop offset="0.94" stop-color="#E1BF61"/>
<stop offset="1" stop-color="#F8DF7C"/>
</linearGradient>
<linearGradient id="paint16_linear_91_2" x1="597.81" y1="247.56" x2="597.81" y2="-17.43" gradientUnits="userSpaceOnUse">
<stop stop-color="#F8DF7C"/>
<stop offset="0.2" stop-color="#B47F2B"/>
<stop offset="0.27" stop-color="#B6822E"/>
<stop offset="0.33" stop-color="#BE8E38"/>
<stop offset="0.39" stop-color="#CCA148"/>
<stop offset="0.45" stop-color="#DFBC5F"/>
<stop offset="0.51" stop-color="#F8DF7C"/>
<stop offset="0.52" stop-color="#FFF4A7"/>
<stop offset="0.59" stop-color="#F8DF7C"/>
<stop offset="0.84" stop-color="#B47F2B"/>
<stop offset="0.94" stop-color="#E1BF61"/>
<stop offset="1" stop-color="#F8DF7C"/>
</linearGradient>
<clipPath id="clip0_91_2">
<rect width="697" height="272.65" fill="white"/>
</clipPath>
</defs>
</svg>
