<svg width="45" height="46" viewBox="0 0 45 46" fill="none" xmlns="http://www.w3.org/2000/svg">
<path d="M14.3407 25.6784C13.4621 24.8 12.0379 24.8 11.1593 25.6784C10.7909 26.0496 10.5649 26.5387 10.521 27.0599C10.265 27.0307 10.0076 27.015 9.75 27.0126C6.51876 27.0084 3.64902 29.0767 2.6312 32.1435C1.61337 35.2103 2.67693 38.584 5.2695 40.5126H2.25C1.00736 40.5126 0 41.52 0 42.7626C0 44.0053 1.00736 45.0126 2.25 45.0126H42.75C43.9926 45.0126 45 44.0053 45 42.7626C45 41.52 43.9926 40.5126 42.75 40.5126H39.9L41.889 29.9084C42.9586 29.5918 43.6333 28.5377 43.4729 27.4338C43.3124 26.33 42.3655 25.5115 41.25 25.5126C41.2485 24.145 40.3238 22.9508 39 22.6071C39 22.5756 39 22.5441 39 22.5126C38.9983 20.8817 37.9426 19.4389 36.3886 18.9436C34.8347 18.4484 33.1388 19.0144 32.1937 20.3436C31.9664 20.2901 31.7336 20.2629 31.5 20.2626C30.1032 20.2637 28.8912 21.227 28.575 22.5876C27.2144 22.9038 26.251 24.1158 26.25 25.5126C25.134 25.51 24.1856 26.328 24.0243 27.4323C23.863 28.5367 24.5378 29.5917 25.608 29.9084L27.6 40.5126H22.5C22.4975 38.0284 20.4843 36.0151 18 36.0126H17.0925C17.2548 35.267 17.2921 34.4995 17.2028 33.7416C18.07 33.6636 18.8135 33.0903 19.1095 32.2715C19.4056 31.4526 19.2004 30.5364 18.5835 29.9219L18.0532 29.3916L43.5907 3.85413C44.1669 3.28738 44.3949 2.45513 44.1879 1.67387C43.981 0.892605 43.3709 0.282369 42.5897 0.0752155C41.8084 -0.131938 40.9761 0.0958213 40.4093 0.671882L14.8717 26.2094L14.3407 25.6784ZM29.25 24.0126C29.6642 24.0126 30 23.6768 30 23.2626C29.9997 22.7397 30.2718 22.2544 30.7181 21.9818C31.1643 21.7092 31.7204 21.6887 32.1855 21.9276C32.3678 22.0211 32.5804 22.0359 32.7739 21.9686C32.9674 21.9013 33.125 21.7578 33.21 21.5714C33.6546 20.6159 34.7028 20.0969 35.7322 20.3228C36.7616 20.5486 37.4963 21.4588 37.5 22.5126C37.4988 22.7067 37.4736 22.9 37.425 23.0879C37.3644 23.33 37.4282 23.5863 37.5951 23.7718C37.7621 23.9573 38.0104 24.0476 38.2575 24.0126C39.083 24.0168 39.75 24.6871 39.75 25.5126H27.75C27.75 24.6842 28.4216 24.0126 29.25 24.0126ZM26.25 27.0126H41.25C41.6642 27.0126 42 27.3484 42 27.7626C42 28.1768 41.6642 28.5126 41.25 28.5126H26.25C25.8358 28.5126 25.5 28.1768 25.5 27.7626C25.5 27.3484 25.8358 27.0126 26.25 27.0126ZM27.15 30.0126H40.35L38.3775 40.5126H29.1225L27.15 30.0126ZM28.5 42.0126H42.75C43.1642 42.0126 43.5 42.3484 43.5 42.7626C43.5 43.1768 43.1642 43.5126 42.75 43.5126H2.25C1.83579 43.5126 1.5 43.1768 1.5 42.7626C1.5 42.3484 1.83579 42.0126 2.25 42.0126H28.5ZM14.25 36.0126C13.8358 36.0126 13.5 36.3484 13.5 36.7626C13.5 37.1768 13.8358 37.5126 14.25 37.5126H18C19.6569 37.5126 21 38.8558 21 40.5126H9.75C6.43629 40.5126 3.75 37.8263 3.75 34.5126C3.75 31.1989 6.43629 28.5126 9.75 28.5126C10.1664 28.5168 10.5813 28.5633 10.9882 28.6514C11.0408 28.7247 11.0979 28.7945 11.1593 28.8606L15.4012 33.1034C15.4678 33.1647 15.5379 33.2221 15.6112 33.2751C15.6996 33.6818 15.746 34.0965 15.75 34.5126C15.7507 35.0188 15.6864 35.5229 15.5588 36.0126H14.25ZM17.523 32.0429C17.3823 32.1837 17.1914 32.2628 16.9924 32.2628C16.7933 32.2628 16.6024 32.1837 16.4618 32.0429L12.2197 27.8001C11.9355 27.5058 11.9396 27.0381 12.2289 26.7488C12.5182 26.4595 12.986 26.4554 13.2803 26.7396L14.34 27.7994L14.9767 28.4361L17.5223 30.9816C17.815 31.2745 17.815 31.7493 17.5223 32.0421L17.523 32.0429ZM41.4697 1.73238C41.6581 1.53741 41.9369 1.45922 42.1991 1.52786C42.4614 1.5965 42.6661 1.80128 42.7348 2.0635C42.8034 2.32572 42.7252 2.60458 42.5303 2.79288L16.9928 28.3304L16.698 28.0364L15.9323 27.2699L41.4697 1.73238Z" fill="black"/>
<path d="M31.5 31.5127H30C29.5858 31.5127 29.25 31.8485 29.25 32.2627C29.25 32.6769 29.5858 33.0127 30 33.0127H31.5C31.9142 33.0127 32.25 32.6769 32.25 32.2627C32.25 31.8485 31.9142 31.5127 31.5 31.5127Z" fill="black"/>
<path d="M36.75 31.5127H34.5C34.0858 31.5127 33.75 31.8485 33.75 32.2627C33.75 32.6769 34.0858 33.0127 34.5 33.0127H36.75C37.1642 33.0127 37.5 32.6769 37.5 32.2627C37.5 31.8485 37.1642 31.5127 36.75 31.5127Z" fill="black"/>
<path d="M42 21.0127C43.2426 21.0127 44.25 20.0053 44.25 18.7627C44.25 17.5201 43.2426 16.5127 42 16.5127C40.7574 16.5127 39.75 17.5201 39.75 18.7627C39.75 20.0053 40.7574 21.0127 42 21.0127ZM42 18.0127C42.4142 18.0127 42.75 18.3485 42.75 18.7627C42.75 19.1769 42.4142 19.5127 42 19.5127C41.5858 19.5127 41.25 19.1769 41.25 18.7627C41.25 18.3485 41.5858 18.0127 42 18.0127Z" fill="black"/>
<path d="M38.25 12.0127C37.0074 12.0127 36 13.0201 36 14.2627C36 15.5053 37.0074 16.5127 38.25 16.5127C39.4926 16.5127 40.5 15.5053 40.5 14.2627C40.5 13.0201 39.4926 12.0127 38.25 12.0127ZM38.25 15.0127C37.8358 15.0127 37.5 14.6769 37.5 14.2627C37.5 13.8485 37.8358 13.5127 38.25 13.5127C38.6642 13.5127 39 13.8485 39 14.2627C39 14.6769 38.6642 15.0127 38.25 15.0127Z" fill="black"/>
<path d="M20.2432 0.0126954C19.8374 0.0125247 19.505 0.33525 19.4932 0.740945V0.756695V0.762695C19.4932 1.0387 19.425 7.5127 13.4857 7.5127C13.0715 7.5127 12.7357 7.84848 12.7357 8.2627C12.7357 8.67691 13.0715 9.0127 13.4857 9.0127C19.4017 9.0127 19.4925 15.4882 19.4932 15.7627C19.4877 16.1769 19.8189 16.5172 20.2331 16.5228C20.6473 16.5284 20.9877 16.1972 20.9932 15.7829V15.7672V15.7627C20.9932 15.4867 21.0615 9.0127 27 9.0127C27.4142 9.0127 27.75 8.67691 27.75 8.2627C27.75 7.84848 27.4142 7.5127 27 7.5127C21.0975 7.5127 20.9947 1.0627 20.9932 0.762695C20.9932 0.348482 20.6575 0.0126954 20.2432 0.0126954ZM23.5815 8.2627C22.0457 9.07286 20.8586 10.416 20.2432 12.0397C19.6279 10.416 18.4408 9.07286 16.905 8.2627C18.4408 7.45253 19.6279 6.10941 20.2432 4.4857C20.8586 6.10941 22.0457 7.45253 23.5815 8.2627Z" fill="black"/>
<path d="M4.5 22.5164V22.5209C4.50228 22.9351 4.83991 23.269 5.25413 23.2668C5.66834 23.2645 6.00228 22.9268 6 22.5126C6 22.3289 6.063 18.0126 9.75 18.0126C10.1642 18.0126 10.5 17.6768 10.5 17.2626C10.5 16.8484 10.1642 16.5126 9.75 16.5126C6.063 16.5126 6 12.1949 6 12.0126V12.0081C5.99876 11.5939 5.66196 11.2591 5.24775 11.2604C4.83354 11.2616 4.49876 11.5984 4.5 12.0126C4.5 12.1964 4.437 16.5126 0.75 16.5126C0.335786 16.5126 0 16.8484 0 17.2626C0 17.6768 0.335786 18.0126 0.75 18.0126C4.437 18.0126 4.5 22.3304 4.5 22.5126V22.5164ZM3.492 17.2626C4.25159 16.7562 4.85925 16.0529 5.25 15.2279C5.64075 16.0529 6.24841 16.7562 7.008 17.2626C6.24857 17.7692 5.64094 18.4725 5.25 19.2974C4.85906 18.4725 4.25143 17.7692 3.492 17.2626Z" fill="black"/>
<path d="M8.09477 6.1679L9.21977 7.2929C9.51405 7.57713 9.98183 7.57307 10.2711 7.28377C10.5604 6.99447 10.5645 6.52669 10.2803 6.2324L9.15527 5.1074C8.96696 4.91244 8.68811 4.83424 8.42589 4.90288C8.16367 4.97152 7.95888 5.1763 7.89025 5.43852C7.82161 5.70074 7.8998 5.9796 8.09477 6.1679Z" fill="black"/>
<path d="M5.84475 3.91788C6.13903 4.20211 6.60681 4.19805 6.89611 3.90875C7.18541 3.61945 7.18948 3.15167 6.90525 2.85738L5.78025 1.73238C5.48597 1.44816 5.01819 1.45222 4.72889 1.74152C4.43959 2.03082 4.43552 2.4986 4.71975 2.79288L5.84475 3.91788Z" fill="black"/>
<path d="M4.71974 7.29288C5.01262 7.58567 5.48737 7.58567 5.78024 7.29288L6.90524 6.16788C7.18947 5.8736 7.18541 5.40582 6.89611 5.11652C6.60681 4.82722 6.13903 4.82316 5.84474 5.10738L4.71974 6.23238C4.42696 6.52526 4.42696 7.00001 4.71974 7.29288Z" fill="black"/>
<path d="M8.62501 4.13765C8.82391 4.13761 9.01464 4.05856 9.15526 3.9179L10.2803 2.7929C10.4752 2.6046 10.5534 2.32574 10.4848 2.06352C10.4162 1.8013 10.2114 1.59652 9.94915 1.52788C9.68692 1.45924 9.40807 1.53744 9.21976 1.7324L8.09476 2.8574C7.88033 3.0719 7.8162 3.39443 7.93226 3.67464C8.04831 3.95486 8.32172 4.13759 8.62501 4.13765Z" fill="black"/>
</svg>
