<svg width="45" height="46" viewBox="0 0 45 46" fill="none" xmlns="http://www.w3.org/2000/svg">
<path d="M35.6908 22.5795C35.8978 22.9346 35.7735 23.388 35.4135 23.5921L35.3729 23.6152V23.6685C35.3729 24.0799 35.0348 24.4134 34.6177 24.4134C34.4618 24.4134 34.3168 24.3668 34.1965 24.2869L32.9139 25.0174C32.5539 25.2231 32.093 25.1018 31.8845 24.7468C31.6759 24.3917 31.7987 23.9369 32.1588 23.7313L33.8625 22.7609V19.8243C33.8625 19.4129 34.2007 19.0794 34.6177 19.0794C35.0348 19.0794 35.3729 19.4129 35.3729 19.8243V22.2846C35.5018 22.3474 35.6138 22.4473 35.6908 22.5795ZM45 21.4799V24.8979H43.2615C43.0329 26.0297 42.5814 27.082 41.9544 28.009L43.1843 29.2223L40.734 31.6392L39.5041 30.426C38.5645 31.0447 37.4975 31.4897 36.3503 31.7154V33.4305H32.8852V31.7154C31.7379 31.4898 30.6711 31.0445 29.7314 30.4259L28.5014 31.6392L26.0513 29.2222L27.2813 28.0089C26.6541 27.082 26.203 26.0296 25.9741 24.8979H24.2355V21.4799H25.9741C26.2028 20.3481 26.6542 19.2958 27.2813 18.3688L26.0514 17.1555L28.5016 14.7385L29.7314 15.9518C30.6711 15.3331 31.738 14.888 32.8853 14.6624V12.9474H36.3504V14.6624C37.4977 14.888 38.5646 15.3332 39.5043 15.9518L40.7342 14.7385L43.1844 17.1556L41.9545 18.3688C42.5817 19.2957 43.0329 20.3483 43.2616 21.4799L45 21.4799ZM39.9781 23.1888C39.9781 20.2686 37.5782 17.9013 34.6178 17.9013C31.6574 17.9013 29.2575 20.2686 29.2575 23.1888C29.2575 26.1091 31.6573 28.4764 34.6178 28.4764C37.5782 28.4764 39.9781 26.1092 39.9781 23.1888ZM33.7932 38.3661C33.7932 38.5568 33.7193 38.7474 33.572 38.8928L28.9717 43.4307C28.8348 43.5678 28.6445 43.6528 28.434 43.6528H3.13465C2.7176 43.6528 2.37947 43.3192 2.37947 42.9078V7.1977C2.37947 6.7863 2.7176 6.45276 3.13465 6.45276H9.92945L9.58302 4.87134C9.52553 4.60875 9.52713 4.34961 9.57763 4.10555H1.92372C0.864112 4.10555 0 4.95794 0 6.00319V44.1024C0 45.1476 0.864112 46 1.92372 46H34.2489C35.3085 46 36.1726 45.1476 36.1726 44.1024V34.9203H33.7931V38.3661H33.7932ZM3.88983 7.94264H10.2578C10.5558 9.09794 11.6011 9.90481 12.8186 9.90481H23.3541C24.5714 9.90481 25.6169 9.09794 25.9149 7.94264H32.2828V11.4575H31.3749V13.5177C30.8959 13.6739 30.4292 13.8648 29.9786 14.0887L28.5015 12.6317L26.4029 14.7017H16.758C16.3409 14.7017 16.0028 15.0353 16.0028 15.4467C16.0028 15.8581 16.3409 16.1916 16.758 16.1916H24.8925L23.9154 17.1555L25.3926 18.6126C25.2667 18.859 25.1513 19.1102 25.0463 19.3656C24.9151 19.2571 24.7459 19.1917 24.5613 19.1917H16.7579C16.3408 19.1917 16.0027 19.5252 16.0027 19.9366C16.0027 20.348 16.3408 20.6816 16.7579 20.6816H22.7251V22.444H16.7579C16.3408 22.444 16.0027 22.7775 16.0027 23.1889C16.0027 23.6003 16.3408 23.9339 16.7579 23.9339H22.7251V26.3879H24.8137C24.9025 26.6526 25.0022 26.9136 25.1128 27.1701C24.975 27.0248 24.7789 26.934 24.5613 26.934H16.7579C16.3408 26.934 16.0027 27.2676 16.0027 27.679C16.0027 28.0904 16.3408 28.4239 16.7579 28.4239H24.5613C24.6258 28.4239 24.6884 28.4159 24.7481 28.4009L23.9154 29.2223L24.8926 30.1862H16.758C16.3409 30.1862 16.0028 30.5198 16.0028 30.9312C16.0028 31.3426 16.3409 31.6761 16.758 31.6761H26.403L28.5015 33.7463L29.9788 32.2891C30.4293 32.513 30.896 32.7039 31.375 32.8601V34.9203H32.2829V37.6212H28.4339C28.0168 37.6212 27.6787 37.9548 27.6787 38.3661V42.1629H3.88983V7.94264ZM16.0028 12.1945C16.0028 12.6059 16.3409 12.9394 16.758 12.9394H24.5614C24.9784 12.9394 25.3166 12.6059 25.3166 12.1945C25.3166 11.7831 24.9784 11.4495 24.5614 11.4495H16.758C16.3408 11.4495 16.0028 11.7831 16.0028 12.1945ZM16.0028 35.421C16.0028 35.8324 16.3409 36.166 16.758 36.166H24.5614C24.9784 36.166 25.3166 35.8324 25.3166 35.421C25.3166 35.0096 24.9784 34.6761 24.5614 34.6761H16.758C16.3408 34.6761 16.0028 35.0096 16.0028 35.421ZM16.0028 38.6732C16.0028 39.0846 16.3409 39.4182 16.758 39.4182H25.6515C26.0685 39.4182 26.4067 39.0846 26.4067 38.6732C26.4067 38.2618 26.0685 37.9283 25.6515 37.9283H16.758C16.3408 37.9283 16.0028 38.2618 16.0028 38.6732ZM7.68931 16.1105C7.68931 16.3362 7.8765 16.5209 8.10542 16.5209H12.7483C12.9772 16.5209 13.1644 16.3362 13.1644 16.1105V11.5305C13.1644 11.3048 12.9773 11.1201 12.7483 11.1201H8.10542C7.8766 11.1201 7.68931 11.3047 7.68931 11.5305V16.1105ZM7.68931 23.8527C7.68931 24.0784 7.8765 24.2631 8.10542 24.2631H12.7483C12.9772 24.2631 13.1644 24.0785 13.1644 23.8527V19.2727C13.1644 19.047 12.9773 18.8622 12.7483 18.8622H8.10542C7.8766 18.8622 7.68931 19.0469 7.68931 19.2727V23.8527ZM7.68931 31.5949C7.68931 31.8206 7.8765 32.0054 8.10542 32.0054H12.7483C12.9772 32.0054 13.1644 31.8207 13.1644 31.5949V27.0149C13.1644 26.7892 12.9773 26.6046 12.7483 26.6046H8.10542C7.8766 26.6046 7.68931 26.7892 7.68931 27.0149V31.5949ZM7.68931 39.3371C7.68931 39.5628 7.8765 39.7475 8.10542 39.7475H12.7483C12.9772 39.7475 13.1644 39.5629 13.1644 39.3371V34.7571C13.1644 34.5314 12.9773 34.3467 12.7483 34.3467H8.10542C7.8766 34.3467 7.68931 34.5314 7.68931 34.7571V39.3371ZM31.215 39.1111H29.189V41.1095L31.215 39.1111ZM33.7932 7.1977V11.4575H36.1727V6.00319C36.1727 4.95794 35.3086 4.10555 34.249 4.10555H26.595C26.6456 4.34951 26.6472 4.60875 26.5896 4.87134L26.2432 6.45276H33.038C33.455 6.45276 33.7932 6.7863 33.7932 7.1977ZM11.7114 7.53357C11.8253 8.05363 12.2793 8.41502 12.8186 8.41502H23.3541C23.8933 8.41502 24.3473 8.05372 24.4612 7.53357L25.1133 4.5567C25.1644 4.32335 24.9862 4.10555 24.7442 4.10555H19.9216L21.8404 1.42935C22.2717 0.827721 21.8374 0 21.0904 0H15.0822C14.3353 0 13.9009 0.827721 14.3323 1.42935L16.2511 4.10555H11.4284C11.1864 4.10555 11.0082 4.32335 11.0593 4.5567L11.7114 7.53357Z" fill="black"/>
</svg>
