<svg width="45" height="46" viewBox="0 0 45 46" fill="none" xmlns="http://www.w3.org/2000/svg">
<path fill-rule="evenodd" clip-rule="evenodd" d="M36.0182 35.4376C36.0182 35.5999 35.9522 35.7556 35.8347 35.8705C35.7172 35.9853 35.5578 36.0498 35.3916 36.0498C35.2254 36.0498 35.066 35.9853 34.9485 35.8705C34.831 35.7556 34.765 35.5999 34.765 35.4376C34.765 34.1498 32.4788 34.1498 32.4788 35.4376C32.4788 37.1209 36.0182 35.6292 36.0182 38.6183C36.0182 39.7906 35.2205 40.5119 34.2485 40.7337V41.1732C34.2485 41.3356 34.1825 41.4913 34.065 41.6061C33.9475 41.7209 33.7881 41.7854 33.6219 41.7854C33.4557 41.7854 33.2963 41.7209 33.1788 41.6061C33.0613 41.4913 32.9953 41.3356 32.9953 41.1732V40.7337C32.0234 40.5122 31.2255 39.7905 31.2255 38.6183C31.2255 38.4559 31.2916 38.3002 31.4091 38.1853C31.5266 38.0705 31.686 38.006 31.8522 38.006C32.0184 38.006 32.1777 38.0705 32.2953 38.1853C32.4128 38.3002 32.4788 38.4559 32.4788 38.6183C32.4788 39.9059 34.765 39.906 34.765 38.6183C34.765 36.9208 31.2255 38.4186 31.2255 35.4376C31.2255 34.2654 32.0234 33.5436 32.9953 33.3221V32.8826C32.9953 32.7202 33.0613 32.5645 33.1788 32.4497C33.2963 32.3349 33.4557 32.2704 33.6219 32.2704C33.7881 32.2704 33.9475 32.3349 34.065 32.4497C34.1825 32.5645 34.2485 32.7202 34.2485 32.8826V33.3221C35.2205 33.5439 36.0182 34.2652 36.0182 35.4376ZM8.98844 7.24207C8.86159 7.11872 8.70022 7.0348 8.52465 7.00085C8.34908 6.96691 8.16715 6.98447 8.00177 7.05132C7.83639 7.11818 7.69495 7.23134 7.59526 7.37655C7.49556 7.52177 7.44207 7.69256 7.4415 7.86742V10.4742C7.44399 10.7076 7.54063 10.9307 7.71044 11.0949C7.88025 11.259 8.10952 11.3511 8.34843 11.3511C8.58734 11.3511 8.8166 11.259 8.98641 11.0949C9.15622 10.9307 9.25287 10.7076 9.25535 10.4742V7.86742C9.25519 7.75115 9.23153 7.63606 9.18573 7.52874C9.13992 7.42143 9.07288 7.32401 8.98844 7.24207ZM17.1812 7.24207C17.0544 7.11872 16.893 7.0348 16.7174 7.00085C16.5419 6.96691 16.36 6.98447 16.1946 7.05132C16.0292 7.11818 15.8878 7.23134 15.7881 7.37655C15.6884 7.52177 15.6349 7.69256 15.6343 7.86742V10.4742C15.6368 10.7076 15.7334 10.9307 15.9032 11.0949C16.0731 11.259 16.3023 11.3511 16.5412 11.3511C16.7801 11.3511 17.0094 11.259 17.1792 11.0949C17.349 10.9307 17.4457 10.7076 17.4482 10.4742V7.86742C17.448 7.75115 17.4243 7.63606 17.3785 7.52874C17.3327 7.42143 17.2657 7.32401 17.1812 7.24207ZM25.374 7.24207C25.2472 7.11872 25.0858 7.0348 24.9102 7.00085C24.7347 6.96691 24.5528 6.98447 24.3874 7.05132C24.222 7.11818 24.0806 7.23134 23.9809 7.37655C23.8812 7.52177 23.8277 7.69256 23.8271 7.86742V10.4742C23.8296 10.7076 23.9262 10.9307 24.096 11.0949C24.2659 11.259 24.4951 11.3511 24.734 11.3511C24.9729 11.3511 25.2022 11.259 25.372 11.0949C25.5418 10.9307 25.6385 10.7076 25.641 10.4742V7.86742C25.6408 7.75116 25.6171 7.63607 25.5713 7.52876C25.5255 7.42145 25.4585 7.32403 25.374 7.24207ZM26.8945 9.92719H30.3607C31.1161 9.92719 31.8296 10.441 31.8296 11.1561V14.9726H1.25374V11.1561C1.25374 10.441 1.96767 9.92719 2.7226 9.92719H6.18835V10.4744C6.18836 10.7515 6.24436 11.0258 6.35316 11.2817C6.46195 11.5375 6.6214 11.7699 6.82233 11.9654C8.18839 13.2999 10.5086 12.3349 10.5086 10.4744V9.92719H14.3812V10.4744C14.3812 10.7515 14.4372 11.0258 14.546 11.2817C14.6548 11.5375 14.8142 11.7699 15.0151 11.9654C16.3812 13.2999 18.7013 12.3349 18.7013 10.4744V9.92719H22.5739V10.4744C22.5739 10.7515 22.6299 11.0258 22.7387 11.2817C22.8475 11.5375 23.007 11.7699 23.2079 11.9654C24.5739 13.2999 26.8941 12.3349 26.8941 10.4744V9.92719H26.8945ZM9.91543 18.8498H7.01273V21.2764H9.91543V18.8498ZM6.927 17.6251H10.0007C10.3098 17.6273 10.6059 17.7473 10.8257 17.9596C10.9343 18.0654 11.0205 18.191 11.0792 18.3293C11.138 18.4677 11.1682 18.616 11.1682 18.7657V21.3598C11.1677 21.6621 11.0445 21.9519 10.8257 22.1657C10.6069 22.3795 10.3103 22.4998 10.0009 22.5003H6.927C6.61757 22.4998 6.32096 22.3795 6.10215 22.1657C5.88335 21.9519 5.7602 21.6621 5.75968 21.3598V18.7657C5.75965 18.616 5.78988 18.4677 5.84865 18.3293C5.90741 18.191 5.99355 18.0654 6.10213 17.9596C6.32206 17.7474 6.61807 17.6274 6.92719 17.6251H6.927ZM17.9925 18.8498H15.0901V21.2764H17.9925V18.8498ZM15.0044 17.6253H18.0781C18.3872 17.6276 18.6832 17.7477 18.9032 17.9599C19.0118 18.0656 19.0979 18.1913 19.1567 18.3296C19.2154 18.4679 19.2457 18.6162 19.2456 18.766V21.3598C19.2451 21.6621 19.122 21.9519 18.9032 22.1657C18.6844 22.3795 18.3877 22.4998 18.0783 22.5003H15.0044C14.695 22.4998 14.3984 22.3795 14.1796 22.1657C13.9608 21.9519 13.8376 21.6621 13.8371 21.3598V18.7657C13.8371 18.616 13.8673 18.4677 13.9261 18.3293C13.9849 18.191 14.071 18.0654 14.1796 17.9596C14.3995 17.7474 14.6955 17.6274 15.0046 17.6251L15.0044 17.6253ZM26.0694 18.8498H23.1679V21.2764H26.0702V18.8498H26.0694ZM23.0815 17.6253H26.1552C26.4643 17.6276 26.7603 17.7477 26.9802 17.9599C27.0888 18.0656 27.1749 18.1913 27.2337 18.3296C27.2925 18.4679 27.3227 18.6162 27.3227 18.766V21.3598C27.3222 21.6621 27.199 21.9519 26.9802 22.1657C26.7614 22.3795 26.4648 22.4998 26.1554 22.5003H23.0819C22.7725 22.4998 22.4758 22.3795 22.257 22.1657C22.0382 21.9519 21.9151 21.6621 21.9146 21.3598V18.7657C21.9145 18.616 21.9448 18.4677 22.0035 18.3293C22.0623 18.191 22.1484 18.0654 22.257 17.9596C22.4769 17.7473 22.7729 17.6273 23.0821 17.6251L23.0815 17.6253ZM9.91543 25.1368H7.01273V27.5634H9.91543V25.1368ZM6.98752 23.9126H9.94015C10.5974 23.9126 11.1681 24.4083 11.1681 25.053V27.6478C11.1681 28.2927 10.5976 28.7883 9.94015 28.7883H6.98752C6.33029 28.7883 5.75948 28.2926 5.75948 27.6478V25.0531C5.75948 24.4082 6.3301 23.9127 6.98752 23.9127V23.9126ZM17.9925 25.1368H15.0901V27.5634H17.9925V25.1368ZM15.0654 23.9126H18.018C18.6752 23.9126 19.246 24.4083 19.246 25.053V27.6478C19.246 28.2927 18.6755 28.7883 18.018 28.7883H15.0654C14.4081 28.7883 13.8373 28.2926 13.8373 27.6478V25.0531C13.8373 24.4082 14.4079 23.9127 15.0654 23.9127V23.9126ZM9.91543 31.4245H7.01273V33.8511H9.91543V31.4245ZM6.927 30.2001H10.0007C10.3101 30.2006 10.6067 30.3209 10.8255 30.5347C11.0443 30.7484 11.1675 31.0382 11.168 31.3405V33.9348C11.168 34.0846 11.1378 34.2329 11.079 34.3712C11.0203 34.5095 10.9341 34.6352 10.8255 34.7409C10.6057 34.9531 10.3097 35.0731 10.0007 35.0753H6.927C6.61786 35.073 6.32185 34.9529 6.10193 34.7406C5.99334 34.6349 5.90719 34.5093 5.84843 34.3709C5.78966 34.2326 5.75944 34.0843 5.75948 33.9345V31.3407C5.76 31.0384 5.88315 30.7486 6.10196 30.5349C6.32076 30.3211 6.61737 30.2008 6.9268 30.2003L6.927 30.2001ZM17.9925 31.4245H15.0901V33.8511H17.9925V31.4245ZM15.0044 30.2001H18.0781C18.3875 30.2006 18.6842 30.3209 18.903 30.5347C19.1218 30.7484 19.2449 31.0382 19.2454 31.3405V33.9348C19.2455 34.0846 19.2153 34.2329 19.1565 34.3712C19.0977 34.5095 19.0116 34.6352 18.903 34.7409C18.6831 34.9531 18.3872 35.0731 18.0781 35.0753H15.0044C14.6953 35.073 14.3993 34.9529 14.1794 34.7406C14.0708 34.6349 13.9846 34.5093 13.9259 34.3709C13.8671 34.2326 13.8369 34.0843 13.8369 33.9345V31.3407C13.8374 31.0384 13.9606 30.7486 14.1794 30.5349C14.3982 30.3211 14.6948 30.2008 15.0042 30.2003L15.0044 30.2001ZM26.0694 25.137H23.1679V27.5636H26.0702V25.1368L26.0694 25.137ZM23.1419 23.9126H26.0945C26.7518 23.9126 27.3226 24.4083 27.3226 25.053V27.6478C27.3226 28.2927 26.752 28.7883 26.0945 28.7883H23.1419C22.4847 28.7883 21.9139 28.2926 21.9139 27.6478V25.0531C21.9139 24.4082 22.4845 23.9127 23.1419 23.9127V23.9126ZM25.76 33.851C25.8598 33.6624 25.963 33.4747 26.0694 33.288V31.4245H23.1679V33.8511L25.76 33.851ZM37.4769 27.828H30.2581C30.089 27.828 29.9267 27.8936 29.8071 28.0105C29.6874 28.1274 29.6202 28.2859 29.6202 28.4512C29.6202 28.6165 29.6874 28.775 29.8071 28.8919C29.9267 29.0088 30.089 29.0744 30.2581 29.0744H37.4773C37.6464 29.0744 37.8087 29.0088 37.9283 28.8919C38.048 28.775 38.1152 28.6165 38.1152 28.4512C38.1152 28.2859 38.048 28.1274 37.9283 28.0105C37.8087 27.8936 37.6464 27.828 37.4773 27.828H37.4769ZM28.7661 29.585C28.6041 29.382 28.4873 29.1481 28.4233 28.8983C28.3593 28.6485 28.3496 28.3885 28.3947 28.1348C28.4397 27.8811 28.5387 27.6395 28.6851 27.4254C28.8315 27.2114 29.0222 27.0296 29.2448 26.8919C28.4038 25.5736 27.6655 23.8835 27.658 22.3895C27.6573 22.2319 27.7192 22.0802 27.8305 21.9662C27.9418 21.8522 28.094 21.7847 28.2552 21.7779V21.7774C28.8761 21.7493 29.6612 20.4125 30.8911 20.4434C31.2188 20.4607 31.5387 20.5476 31.8286 20.6979V16.1971H1.25374V35.4395C1.25374 36.1546 1.96776 36.6683 2.7226 36.6683H24.5653C24.7366 36.1271 24.9377 35.5953 25.1677 35.0753H23.0819C22.7727 35.0731 22.4767 34.953 22.2568 34.7406C22.1482 34.6349 22.0621 34.5093 22.0033 34.3709C21.9445 34.2326 21.9143 34.0843 21.9144 33.9345V31.3407C21.9149 31.0384 22.038 30.7486 22.2568 30.5349C22.4756 30.3211 22.7723 30.2008 23.0817 30.2003H26.1554C26.3092 30.2005 26.4615 30.2303 26.6035 30.2882C26.7455 30.346 26.8744 30.4307 26.9829 30.5373C27.0913 30.6439 27.1772 30.7704 27.2355 30.9095C27.2938 31.0486 27.3234 31.1975 27.3227 31.3478C27.7679 30.733 28.25 30.1445 28.7663 29.5853L28.7661 29.585ZM38.0759 30.2034C37.8828 30.2669 37.6804 30.2993 37.4767 30.2993H30.2581C30.1162 30.2993 29.9747 30.2837 29.8363 30.2527C28.2127 31.9549 26.7382 34.2779 25.9339 36.511C25.2245 38.4801 25.0406 40.3474 25.7639 41.5712C26.1903 42.2927 26.8743 42.895 27.7266 43.3758C31.0347 45.242 36.7789 45.2458 40.0881 43.3791C40.941 42.8981 41.6259 42.2949 42.0534 41.5712C42.7003 40.4768 42.4818 38.5011 41.7318 36.3746C40.9594 34.1841 39.6277 31.8834 38.0768 30.2036L38.0759 30.2034ZM38.5419 26.9257C39.3089 25.6491 39.9642 24.039 40.0763 22.6405H40.0752C40.0858 22.5073 40.0514 22.3744 39.9774 22.2621C39.9033 22.1498 39.7936 22.0643 39.6651 22.0188C38.8492 21.729 37.8149 20.6171 36.7271 20.5899C36.0097 20.5719 35.4963 20.984 34.9829 21.396C34.1565 22.0594 34.0642 22.1038 33.0818 21.4672V11.1561C33.0818 9.75573 31.8013 8.70266 30.3598 8.70266H26.8941V7.86742C26.8941 7.59034 26.8381 7.316 26.7292 7.06012C26.6204 6.80425 26.461 6.57188 26.26 6.37636C24.8943 5.042 22.5739 6.00681 22.5739 7.86742V8.70285H18.7013V7.86742C18.7012 7.59033 18.6452 7.31598 18.5363 7.06011C18.4275 6.80424 18.268 6.57188 18.067 6.37636C16.7012 5.042 14.3809 6.00681 14.3809 7.86742V8.70285H10.5086V7.86742C10.5086 7.59034 10.4525 7.316 10.3437 7.06012C10.2349 6.80425 10.0755 6.57188 9.87452 6.37636C8.50866 5.042 6.18835 6.00681 6.18835 7.86742V8.70285H2.72211C1.28071 8.70285 0 9.75564 0 11.1563V35.4395C0 36.84 1.28071 37.8929 2.72211 37.8929H24.2469C23.9162 39.5199 24.0005 41.0305 24.6822 42.1839C27.6847 47.2648 40.1242 47.2792 43.1354 42.1839C43.979 40.7572 43.7756 38.414 42.9166 35.9781C42.1061 33.68 40.7054 31.2564 39.0638 29.4558C39.3327 29.0514 39.4287 28.5602 39.3313 28.0874C39.2339 27.6147 38.9509 27.198 38.5429 26.9267L38.5419 26.9257ZM30.5426 26.6032C29.8002 25.5273 29.0982 24.108 28.9387 22.8532C29.7079 22.5325 30.3932 21.6511 30.8613 21.6628C31.5609 21.6804 32.8292 23.1141 34.0312 23.1443C35.2782 23.1756 36.0767 21.7939 36.6973 21.8094C37.1494 21.8207 38.1674 22.6336 38.7769 22.9586C38.5795 24.173 37.971 25.5303 37.281 26.6032H30.5426ZM40.1933 17.9622H36.0468V6.85144C36.0467 6.77102 36.0305 6.6914 35.999 6.61711C35.9675 6.54283 35.9213 6.47534 35.8631 6.41849C35.8049 6.36165 35.7358 6.31657 35.6597 6.28582C35.5837 6.25508 35.5021 6.23928 35.4198 6.23931H33.3525L38.1204 1.48264L42.8877 6.23931H40.8205C40.6543 6.23931 40.495 6.3038 40.3774 6.41859C40.2599 6.53339 40.1939 6.68908 40.1939 6.85144V17.9626L40.1933 17.9622ZM41.4471 7.46413H44.3763V7.46231C44.4993 7.46196 44.6194 7.4262 44.7217 7.35952C44.824 7.29284 44.9039 7.19818 44.9514 7.08738C44.9989 6.97659 45.012 6.85456 44.9889 6.73656C44.9659 6.61855 44.9077 6.5098 44.8217 6.4239L38.5585 0.175211C38.5 0.119002 38.4307 0.0745999 38.3546 0.0445407C38.2786 0.0144815 38.1972 -0.000646301 38.1152 2.1162e-05C38.0331 0.000688625 37.952 0.0171383 37.8765 0.0484308C37.8009 0.0797233 37.7325 0.125246 37.6749 0.182399L31.4508 6.39179C31.355 6.47392 31.2871 6.58262 31.2562 6.70339C31.2253 6.82417 31.2328 6.95128 31.2777 7.06778C31.3227 7.18428 31.4029 7.28463 31.5077 7.35544C31.6125 7.42626 31.7369 7.46417 31.8643 7.46413H34.7936V18.5747C34.7936 18.7371 34.8596 18.8928 34.9771 19.0076C35.0946 19.1224 35.254 19.1869 35.4201 19.1869H40.8205C40.9867 19.1869 41.1461 19.1224 41.2636 19.0076C41.3811 18.8928 41.4471 18.7371 41.4471 18.5747V7.46413Z" fill="black"/>
</svg>
