<svg width="45" height="46" viewBox="0 0 45 46" fill="none" xmlns="http://www.w3.org/2000/svg">
<path d="M43.9321 14.3518L41.832 13.6617C41.7822 13.6455 41.7617 13.6231 41.7493 13.5763C41.4218 12.3166 40.9261 11.1071 40.2739 9.97851C40.2498 9.93718 40.2489 9.91112 40.273 9.8644L41.2741 7.87498C41.5784 7.26935 41.4645 6.54152 40.9911 6.06349L38.9933 4.04891C38.5217 3.56818 37.8009 3.45317 37.1993 3.76137L35.2265 4.77405C35.1837 4.79651 35.1579 4.79562 35.1134 4.76956C34.002 4.11451 32.8042 3.61311 31.5504 3.27885C31.5094 3.26806 31.4854 3.25279 31.4685 3.19887L30.7851 1.07648C30.5768 0.433106 29.9868 0 29.3168 0H26.4914C25.8213 0 25.2313 0.432207 25.0231 1.07648L24.3379 3.20247C24.3254 3.24111 24.3094 3.26357 24.2534 3.27885C23.0022 3.61311 21.8053 4.11451 20.6965 4.76956C20.652 4.79562 20.6253 4.79651 20.5782 4.77225L18.6097 3.76227C18.0117 3.45317 17.2909 3.56728 16.8166 4.04622L14.8189 6.06349C14.3445 6.54242 14.2298 7.27025 14.5341 7.87588L15.537 9.8626C15.5601 9.90843 15.5592 9.93898 15.5352 9.98121C14.8838 11.1044 14.3873 12.3148 14.0598 13.5737C14.0464 13.6249 14.0269 13.6455 13.977 13.6626L11.8796 14.3527C11.2398 14.5621 10.8099 15.1578 10.8099 15.8362V18.6892C10.8099 19.3667 11.2398 19.9633 11.8787 20.1718L13.9824 20.8637C14.0206 20.8763 14.0455 20.8942 14.0598 20.9454C14.1799 21.4127 14.3276 21.8799 14.4994 22.3409C13.9316 23.0867 13.5935 24.0185 13.5935 25.0294V25.954C13.4467 26.0259 13.3007 26.1023 13.1548 26.1823L6.72629 29.7163L6.01261 28.4646C5.62818 27.797 4.77478 27.5642 4.10648 27.9488L0.695577 29.9319C0.0299474 30.3228 -0.197862 31.1863 0.187456 31.8576L7.84843 45.2892C8.03263 45.6163 8.33341 45.8508 8.69381 45.9497C8.81573 45.9829 8.93942 46 9.06222 46C9.30427 46 9.54187 45.9362 9.75722 45.8113L13.1628 43.8291C13.8302 43.44 14.0607 42.5765 13.6762 41.9035L12.9937 40.7066L13.3523 40.5089C14.7877 39.7209 16.3032 39.5771 17.8569 40.083L21.1557 41.155C21.913 41.4021 22.6631 41.5252 23.4026 41.5252C24.5577 41.5252 25.6869 41.2242 26.7771 40.6239L42.0412 32.2359C43.6545 31.3481 44.2543 29.2994 43.3769 27.6667C43.093 27.141 42.6881 26.7223 42.2174 26.4258V25.0303C42.2174 24.0194 41.8783 23.0876 41.3115 22.3418C41.4814 21.8853 41.63 21.4181 41.7537 20.9463C41.7671 20.8933 41.7902 20.8772 41.8329 20.8637L43.9304 20.1736C44.5702 19.9642 45 19.3685 45 18.6901V15.8371C44.9982 15.1578 44.5702 14.5621 43.9321 14.3518ZM15.0137 25.0276C15.0137 24.2557 15.3056 23.5522 15.7826 23.022C15.8164 22.9924 15.8476 22.9591 15.8751 22.9241C16.41 22.3813 17.1503 22.0444 17.9672 22.0444H21.113C21.9361 22.0444 22.7228 22.4038 23.278 23.0085C22.527 23.7481 22.0384 24.7562 21.9655 25.8776C21.5446 25.7411 21.1236 25.6036 20.7027 25.467C18.761 24.8344 16.8549 24.8075 15.0128 25.3816V25.0276H15.0137ZM19.5388 15.1542C20.7152 15.1542 21.6727 16.1211 21.6727 17.309C21.6727 18.496 20.7152 19.461 19.5388 19.461C18.3632 19.461 17.4075 18.4951 17.4075 17.309C17.4075 16.1211 18.3632 15.1542 19.5388 15.1542ZM23.0956 17.3099C23.0956 15.6862 22.0233 14.3123 20.5559 13.8693C21.8578 10.9876 24.7116 9.10332 27.9036 9.10332C31.0885 9.10332 33.9379 10.9777 35.2443 13.8477C33.7412 14.2664 32.6334 15.6592 32.6334 17.3099C32.6334 18.7871 33.5223 20.0586 34.7877 20.6085H34.6961C33.4067 20.6085 32.1822 21.1988 31.3573 22.1819C30.7868 21.906 30.1479 21.7515 29.4752 21.7515H29.3034C30.5706 21.2015 31.4605 19.9292 31.4605 18.4501C31.4605 16.4715 29.8649 14.8613 27.9036 14.8613C25.9441 14.8613 24.3495 16.4715 24.3495 18.4501C24.3495 19.9292 25.2385 21.2015 26.5047 21.7515H26.3321C25.6594 21.7515 25.0213 21.906 24.4509 22.181C23.6251 21.1979 22.4006 20.6076 21.113 20.6076H20.9394C22.2057 20.0586 23.0956 18.7871 23.0956 17.3099ZM36.1875 15.1542C37.3639 15.1542 38.3215 16.1211 38.3215 17.309C38.3215 18.496 37.3639 19.461 36.1875 19.461C35.012 19.461 34.0563 18.4951 34.0563 17.309C34.0563 16.1211 35.012 15.1542 36.1875 15.1542ZM32.4287 29.8448L31.7417 30.2222C31.3573 29.3694 30.632 28.6964 29.7279 28.4008L29.291 28.2588C27.319 27.6182 25.3488 26.9775 23.3777 26.3359V26.1679C23.3777 25.1696 23.8671 24.2845 24.6164 23.7436C24.6173 23.7427 24.6191 23.7427 24.62 23.7418C24.6467 23.7256 24.6716 23.7067 24.6956 23.6878C25.1646 23.3725 25.727 23.1873 26.3312 23.1873H29.4743C30.0838 23.1873 30.6507 23.3743 31.1214 23.695C31.133 23.704 31.1455 23.7121 31.157 23.7211C31.9241 24.2602 32.4278 25.1552 32.4278 26.1679V29.8448H32.4287ZM27.9036 20.6058C26.7281 20.6058 25.7724 19.6389 25.7724 18.451C25.7724 17.264 26.729 16.299 27.9036 16.299C29.0801 16.299 30.0376 17.2649 30.0376 18.451C30.0376 19.6389 29.0801 20.6058 27.9036 20.6058ZM9.06845 44.5488L1.43062 31.1576L4.79169 29.2032L11.3839 40.7623C11.3848 40.7641 11.3857 40.7668 11.3866 40.7686C11.3893 40.774 11.3937 40.7794 11.3964 40.7848L12.4277 42.5936L9.06845 44.5488ZM41.3586 30.9707L26.0945 39.3587C24.6618 40.1477 23.1463 40.2914 21.5908 39.7847L18.2921 38.7127C16.353 38.0819 14.462 38.2607 12.6707 39.2446L12.2827 39.4585L7.43552 30.9599L13.8338 27.4429C15.884 26.317 18.0482 26.1131 20.2685 26.8355C23.1303 27.7664 25.994 28.6973 28.8576 29.6282L29.2936 29.7702C29.9957 29.9993 30.511 30.6274 30.6053 31.3714C30.6089 31.3957 30.6133 31.42 30.6187 31.4433C30.6169 31.4703 30.616 31.4981 30.6178 31.526C30.6285 31.7506 30.5982 31.978 30.527 32.2008C30.3722 32.6887 30.0349 33.0877 29.5793 33.324C29.1228 33.5603 28.6049 33.6035 28.1208 33.4453C25.5677 32.615 23.0146 31.7848 20.4598 30.9545C20.0852 30.8332 19.6847 31.0408 19.5646 31.4182C19.4444 31.7956 19.65 32.2008 20.0238 32.3221C22.5786 33.1524 25.1317 33.9827 27.6838 34.8129C28.0193 34.9225 28.3637 34.9765 28.7072 34.9765C29.2296 34.9765 29.7492 34.8507 30.2289 34.6027C31.0236 34.1911 31.6109 33.4938 31.8823 32.6411C31.9811 32.3311 32.0336 32.0148 32.0416 31.6958L33.4405 30.9275C33.4689 30.9141 33.4956 30.8997 33.5215 30.8826L39.5335 27.5804C40.4581 27.0718 41.6229 27.4187 42.1275 28.3523C42.6285 29.2859 42.285 30.4612 41.3586 30.9707ZM38.8518 26.317L33.8516 29.0639V26.1688C33.8516 24.9315 33.3444 23.8118 32.5292 23.0094C33.0836 22.4038 33.8712 22.0444 34.6961 22.0444H37.8391C38.6561 22.0444 39.3964 22.3813 39.9312 22.9241C39.9588 22.9591 39.9891 22.9915 40.0229 23.022C40.5008 23.5522 40.7918 24.2557 40.7918 25.0276V25.928C40.1439 25.857 39.4676 25.9783 38.8518 26.317ZM43.5753 18.6874C43.5753 18.7467 43.5477 18.7853 43.489 18.8042L41.3951 19.4934C40.8816 19.6578 40.5106 20.0559 40.3753 20.5806C40.313 20.8178 40.2427 21.0542 40.1671 21.2887C39.4925 20.8592 38.6943 20.6094 37.8391 20.6094H37.5873C38.8545 20.0595 39.7435 18.788 39.7435 17.3108C39.7435 15.5253 38.446 14.04 36.7535 13.765C35.335 10.0989 31.8369 7.66742 27.9028 7.66742C23.9748 7.66742 20.4812 10.0935 19.06 13.7525C17.3256 13.9897 15.9837 15.4939 15.9837 17.3108C15.9837 18.788 16.8727 20.0595 18.1381 20.6094H17.9664C17.1112 20.6094 16.3139 20.8592 15.6393 21.2887C15.5637 21.0533 15.4934 20.8169 15.4329 20.5788C15.2932 20.0532 14.9212 19.6578 14.4157 19.4961L12.3156 18.8051C12.2578 18.7862 12.2302 18.7485 12.2302 18.6883V15.8353C12.2302 15.776 12.2578 15.7374 12.3165 15.7185L14.4148 15.0284C14.923 14.8622 15.294 14.4668 15.4338 13.9421C15.7292 12.8054 16.1759 11.7172 16.7632 10.7045C17.0302 10.2391 17.0462 9.69636 16.8042 9.21294L15.8004 7.22443C15.7737 7.17051 15.7808 7.12199 15.8226 7.07976L17.8204 5.06249C17.8614 5.02116 17.9076 5.01397 17.961 5.04182L19.9277 6.0518C20.4055 6.29981 20.9466 6.28453 21.412 6.01047C22.4095 5.42101 23.4881 4.96994 24.6111 4.66982C25.1343 4.53324 25.5277 4.15764 25.6896 3.64366L26.373 1.52216C26.3917 1.46465 26.4291 1.4368 26.4887 1.4368H29.3141C29.3737 1.4368 29.4111 1.46465 29.4298 1.52126L30.1141 3.64456C30.2814 4.16033 30.6738 4.53414 31.1882 4.66802C32.3148 4.96904 33.3933 5.42101 34.3918 6.00867C34.8554 6.28543 35.3964 6.30071 35.8725 6.0536L37.8418 5.04272C37.8952 5.01487 37.9424 5.02116 37.9833 5.06339L39.9829 7.08066C40.0238 7.12199 40.0309 7.17051 40.0033 7.22532L39.004 9.21114C38.7575 9.69547 38.7726 10.2418 39.0449 10.7063C39.6305 11.7199 40.0763 12.809 40.3726 13.9466C40.5106 14.4668 40.8808 14.8613 41.3898 15.0293L43.4908 15.7194C43.5477 15.7383 43.5753 15.776 43.5753 15.8362V18.6874Z" fill="black"/>
</svg>
